<svg width="9" height="9" viewBox="0 0 9 9" fill="none" xmlns="http://www.w3.org/2000/svg">
<path d="M4.5 0C2.01445 0 0 2.01445 0 4.5C0 6.98555 2.01445 9 4.5 9C6.98555 9 9 6.98555 9 4.5C9 2.01445 6.98555 0 4.5 0ZM4.5 8.24941C2.4293 8.24941 0.750586 6.5707 0.750586 4.5C0.750586 2.4293 2.4293 0.750586 4.5 0.750586C6.5707 0.750586 8.24941 2.4293 8.24941 4.5C8.24941 6.5707 6.5707 8.24941 4.5 8.24941ZM4.87441 1.49941H4.12383V4.5L5.81133 6.1875L6.37383 5.625L4.87441 4.12559V1.49941Z" fill="#BBBBBB"/>
</svg>
