<svg width="11" height="9" fill="none" xmlns="http://www.w3.org/2000/svg"><path d="M10.978 3.909A6.12 6.12 0 0 0 5.5 0 6.12 6.12 0 0 0 .022 3.909a.367.367 0 0 0 0 .25A6.12 6.12 0 0 0 5.5 8.066a6.12 6.12 0 0 0 5.478-3.909.367.367 0 0 0 0-.25ZM5.5 7.334c-1.943 0-3.997-1.441-4.741-3.3.744-1.86 2.798-3.3 4.741-3.3 1.943 0 3.997 1.44 4.741 3.3-.744 1.859-2.798 3.3-4.741 3.3Z" fill="#BBB"/><path d="M5.5 1.833a2.2 2.2 0 1 0 0 4.4 2.2 2.2 0 0 0 0-4.4Zm0 3.667a1.467 1.467 0 1 1 0-2.933 1.467 1.467 0 0 1 0 2.933Z" fill="#BBB"/></svg>