<svg xmlns="http://www.w3.org/2000/svg" width="12.594" height="12.594"><path data-name="Forma 1" d="M442.668 26h-4.728a3.94 3.94 0 0 0-3.94 3.94v4.728a3.94 3.94 0 0 0 3.94 3.94h4.728a3.94 3.94 0 0 0 3.939-3.94V29.94a3.94 3.94 0 0 0-3.939-3.94Zm2.758 8.668a2.762 2.762 0 0 1-2.758 2.758h-4.728a2.761 2.761 0 0 1-2.758-2.758V29.94a2.761 2.761 0 0 1 2.758-2.758h4.728a2.762 2.762 0 0 1 2.758 2.758v4.728Zm-5.126-5.516a3.152 3.152 0 1 0 3.152 3.152 3.152 3.152 0 0 0-3.152-3.152Zm0 5.122a1.97 1.97 0 1 1 1.97-1.97 1.973 1.973 0 0 1-1.97 1.97Zm3.388-5.778a.42.42 0 1 1-.42.42.42.42 0 0 1 .424-.416Z" transform="translate(-434 -26)" style="fill:#fff;fill-rule:evenodd"/></svg>