<svg width="12" height="12" viewBox="0 0 12 12" fill="none" xmlns="http://www.w3.org/2000/svg">
<path fill-rule="evenodd" clip-rule="evenodd" d="M8.25066 0H3.7503C2.75566 0 1.80175 0.39512 1.09843 1.09844C0.395112 1.80175 0 2.75566 0 3.7503V8.25066C0 9.2453 0.395112 10.1992 1.09843 10.9025C1.80175 11.6058 2.75566 12.001 3.7503 12.001H8.25066C9.24513 12.0007 10.1988 11.6055 10.9019 10.9022C11.605 10.1989 12 9.24513 12 8.25066V3.7503C12 2.75582 11.605 1.80206 10.9019 1.09877C10.1988 0.395483 9.24513 0.000252405 8.25066 0ZM10.8759 8.25066C10.8749 8.9466 10.598 9.61374 10.1059 10.1058C9.61375 10.598 8.9466 10.8749 8.25066 10.8759H3.7503C3.05428 10.8751 2.38697 10.5983 1.89482 10.1061C1.40266 9.61397 1.12585 8.94667 1.1251 8.25066V3.7503C1.12585 3.05428 1.40266 2.38699 1.89482 1.89483C2.38697 1.40267 3.05428 1.12584 3.7503 1.12509H8.25066C8.9466 1.1261 9.61375 1.403 10.1059 1.89511C10.598 2.38721 10.8749 3.05436 10.8759 3.7503V8.25066ZM5.99666 3.00024C5.40327 3.00024 4.8232 3.1762 4.32981 3.50587C3.83643 3.83554 3.4519 4.30411 3.22482 4.85234C2.99774 5.40056 2.93831 6.00381 3.05407 6.5858C3.16984 7.16779 3.45559 7.70238 3.87518 8.12197C4.29477 8.54156 4.82938 8.8273 5.41137 8.94307C5.99336 9.05883 6.5966 8.99942 7.14482 8.77234C7.69304 8.54526 8.16162 8.16071 8.49129 7.66732C8.82096 7.17393 8.99691 6.59387 8.99691 6.00048C8.99691 5.20477 8.68082 4.44164 8.11817 3.87899C7.55551 3.31633 6.79237 3.00024 5.99666 3.00024ZM5.99666 7.87563C5.62579 7.87563 5.26327 7.76565 4.9549 7.55961C4.64654 7.35356 4.40618 7.06071 4.26425 6.71807C4.12233 6.37543 4.0852 5.9984 4.15756 5.63465C4.22991 5.27091 4.40851 4.93679 4.67075 4.67455C4.933 4.4123 5.26711 4.23371 5.63086 4.16136C5.9946 4.08901 6.37163 4.12614 6.71427 4.26807C7.05691 4.40999 7.34975 4.65033 7.55579 4.9587C7.76184 5.26707 7.87181 5.62961 7.87181 6.00048C7.87105 6.49757 7.67328 6.97408 7.32178 7.32558C6.97029 7.67707 6.49375 7.87487 5.99666 7.87563ZM9.22154 2.37582C9.30061 2.37582 9.3779 2.39927 9.44364 2.4432C9.50938 2.48713 9.56063 2.54956 9.59088 2.62261C9.62114 2.69566 9.62908 2.77605 9.61366 2.8536C9.59823 2.93114 9.56014 3.00238 9.50423 3.05829C9.44832 3.1142 9.37708 3.15227 9.29953 3.1677C9.22198 3.18312 9.14162 3.17521 9.06857 3.14495C8.99552 3.11469 8.93307 3.06345 8.88914 2.99771C8.84521 2.93196 8.82177 2.85467 8.82177 2.7756C8.82227 2.7231 8.83309 2.67121 8.85364 2.6229C8.87419 2.57459 8.90406 2.5308 8.94154 2.49403C8.97902 2.45726 9.02339 2.42823 9.07208 2.4086C9.12078 2.38897 9.17284 2.37913 9.22534 2.37963L9.22154 2.37582Z" fill="#007AFF"/>
</svg>
