<svg width="12" height="12" fill="none" xmlns="http://www.w3.org/2000/svg"><path fill-rule="evenodd" clip-rule="evenodd" d="M8.25 0h-4.5A3.75 3.75 0 0 0 0 3.75v4.5a3.75 3.75 0 0 0 3.75 3.751h4.5A3.75 3.75 0 0 0 12 8.251v-4.5A3.75 3.75 0 0 0 8.25 0Zm2.626 8.25a2.629 2.629 0 0 1-2.625 2.626h-4.5A2.628 2.628 0 0 1 1.124 8.25v-4.5A2.628 2.628 0 0 1 3.75 1.124h4.5a2.63 2.63 0 0 1 2.626 2.625v4.5ZM5.996 3a3 3 0 1 0 0 6 3 3 0 0 0 0-6Zm0 4.876a1.875 1.875 0 1 1 0-3.75 1.875 1.875 0 0 1 0 3.75Zm3.226-5.5a.4.4 0 1 1-.368.247.4.4 0 0 1 .371-.243l-.003-.004Z" fill="#007AFF"/></svg>