<svg xmlns="http://www.w3.org/2000/svg" width="11.906" height="11.875"><path data-name="Forma 1" d="M517.641 35.859 515.8 34.02a.959.959 0 0 0-1.352.026l-.926.926-.183-.1a8.685 8.685 0 0 1-3.843-3.844l-.1-.179.622-.621.305-.306a.957.957 0 0 0 .025-1.352l-1.839-1.839a.958.958 0 0 0-1.352.026l-.518.521.014.014a3.019 3.019 0 0 0-.427.753 3.183 3.183 0 0 0-.19.764c-.242 2.013.677 3.853 3.174 6.349 3.45 3.451 6.231 3.19 6.351 3.177a3.1 3.1 0 0 0 .766-.193 2.975 2.975 0 0 0 .751-.425l.011.01.525-.514a.96.96 0 0 0 .027-1.354Z" transform="translate(-506 -26.469)" style="fill:#fff;fill-rule:evenodd"/></svg>