<svg xmlns="http://www.w3.org/2000/svg" width="12.75" height="7.344"><path data-name="Forma 1" d="M409.867 34.83a5.666 5.666 0 0 0-1.269-1.468c-1.07-.994-.926-.832.363-2.55.785-1.046 1.1-1.685 1-1.958a.746.746 0 0 0-.671-.192l-1.92.011a.442.442 0 0 0-.249.044.539.539 0 0 0-.169.206 11.085 11.085 0 0 1-.71 1.5c-.856 1.453-1.2 1.529-1.338 1.439a1.645 1.645 0 0 1-.244-1.3c0-1.408.214-2-.416-2.147a3.293 3.293 0 0 0-.9-.089 4.148 4.148 0 0 0-1.594.163c-.219.107-.387.346-.284.359a.862.862 0 0 1 .567.285 1.853 1.853 0 0 1 .19.87s.113 1.657-.264 1.863c-.26.141-.615-.147-1.378-1.466a12.2 12.2 0 0 1-.686-1.422.571.571 0 0 0-.158-.213.8.8 0 0 0-.3-.119l-1.826.011a.622.622 0 0 0-.374.127.4.4 0 0 0-.007.325 20.792 20.792 0 0 0 3.047 5.03 4.386 4.386 0 0 0 3.17 1.444h.764a.642.642 0 0 0 .348-.153.555.555 0 0 0 .105-.335 1.4 1.4 0 0 1 .461-1.176c.469-.148 1.071.99 1.709 1.429a1.208 1.208 0 0 0 .849.259l1.707-.024s.901-.051.477-.753Z" transform="translate(-397.219 -28.344)" style="fill:#fff;fill-rule:evenodd"/></svg>