<svg width="11" height="8" fill="none" xmlns="http://www.w3.org/2000/svg"><path fill-rule="evenodd" clip-rule="evenodd" d="M10.802 1.238A1.392 1.392 0 0 0 9.615.153a55.419 55.419 0 0 0-8.226 0A1.39 1.39 0 0 0 .202 1.238c-.16.86-.225 1.736-.194 2.61-.032.875.032 1.75.192 2.611a1.39 1.39 0 0 0 1.186 1.086c1.368.128 2.741.179 4.114.153a36.646 36.646 0 0 0 4.112-.153A1.392 1.392 0 0 0 10.8 6.459c.16-.86.224-1.736.192-2.61a11.93 11.93 0 0 0-.19-2.61Zm-6.72 4.325V1.91l3.493 1.836-3.493 1.817Z" fill="#007AFF"/></svg>