<svg width="11" height="8" viewBox="0 0 11 8" fill="none" xmlns="http://www.w3.org/2000/svg">
<path fill-rule="evenodd" clip-rule="evenodd" d="M10.8024 1.23824C10.7412 0.956646 10.5941 0.700995 10.3814 0.506576C10.1686 0.312158 9.90081 0.188557 9.61485 0.152836C6.87665 -0.0509452 4.12711 -0.0509452 1.38891 0.152836C1.10297 0.188373 0.835151 0.311926 0.622528 0.506389C0.409906 0.700852 0.263002 0.956606 0.202145 1.23824C0.0415541 2.09864 -0.0234952 2.97414 0.00819927 3.84881C-0.0243104 4.7234 0.0399192 5.5989 0.199734 6.45938C0.260699 6.74097 0.407637 6.99666 0.620239 7.1911C0.832841 7.38555 1.1006 7.50914 1.3865 7.54479C2.75368 7.67285 4.12698 7.72401 5.4999 7.69802C6.87255 7.72402 8.24556 7.67286 9.61247 7.54479C9.89842 7.50907 10.1663 7.38547 10.379 7.19105C10.5917 6.99663 10.7388 6.74098 10.8 6.45938C10.9599 5.5989 11.0241 4.7234 10.9916 3.84881C11.0245 2.97432 10.961 2.09886 10.8024 1.23824ZM4.08248 5.56312V1.91024L7.57492 3.74586L4.08248 5.56312Z" fill="#007AFF"/>
</svg>
