<svg width="22" height="27" fill="none" xmlns="http://www.w3.org/2000/svg"><path opacity=".25" d="M0 3.667A3.667 3.667 0 0 1 3.667 0h11.925c.973 0 1.905.386 2.593 1.074l2.741 2.74A3.667 3.667 0 0 1 22 6.409v16.814a3.667 3.667 0 0 1-3.667 3.667H3.667A3.667 3.667 0 0 1 0 23.222V3.667Z" fill="#0085D4"/><path d="M3.728 18v-4.9h1.589c.574 0 1.045.1 1.414.301.373.2.649.485.826.854.182.364.273.798.273 1.302 0 .5-.091.933-.273 1.302a1.882 1.882 0 0 1-.826.847c-.369.196-.84.294-1.414.294H3.728Zm.742-.63h.819c.443 0 .793-.072 1.05-.217.261-.145.448-.352.56-.623.117-.27.175-.595.175-.973s-.058-.705-.175-.98a1.231 1.231 0 0 0-.56-.63c-.257-.15-.607-.224-1.05-.224H4.47v3.647Zm6.44.714c-.485 0-.91-.107-1.273-.322a2.269 2.269 0 0 1-.854-.889c-.205-.383-.308-.824-.308-1.323 0-.5.103-.938.308-1.316.205-.383.49-.681.854-.896.364-.215.788-.322 1.274-.322.485 0 .91.107 1.274.322.364.215.646.513.847.896.205.378.308.817.308 1.316 0 .5-.103.94-.308 1.323a2.22 2.22 0 0 1-.847.889c-.364.215-.789.322-1.274.322Zm0-.665c.337 0 .629-.075.876-.224a1.52 1.52 0 0 0 .588-.644c.14-.28.21-.614.21-1.001 0-.387-.07-.721-.21-1.001a1.515 1.515 0 0 0-.588-.644 1.66 1.66 0 0 0-.875-.224 1.7 1.7 0 0 0-.882.224 1.52 1.52 0 0 0-.588.644c-.136.28-.203.614-.203 1.001 0 .387.068.721.203 1.001.14.28.336.495.588.644.252.15.546.224.882.224Zm5.44.665c-.485 0-.905-.105-1.26-.315a2.169 2.169 0 0 1-.812-.889 2.94 2.94 0 0 1-.287-1.323c0-.504.096-.945.287-1.323.192-.383.462-.681.812-.896.355-.215.775-.322 1.26-.322.574 0 1.043.14 1.407.42.364.28.595.672.693 1.176h-.826a1.162 1.162 0 0 0-.42-.679c-.214-.168-.501-.252-.86-.252-.49 0-.878.168-1.163.504-.284.331-.427.789-.427 1.372 0 .579.143 1.034.427 1.365.285.331.672.497 1.162.497.36 0 .647-.08.861-.238.215-.159.355-.376.42-.651h.826c-.098.485-.329.866-.693 1.141-.364.275-.833.413-1.407.413Z" fill="#000"/><path d="M14.666 1.09c0-.602.488-1.09 1.09-1.09a3.27 3.27 0 0 1 2.312.958l2.974 2.973a3.27 3.27 0 0 1 .957 2.312 1.09 1.09 0 0 1-1.09 1.09h-5.02a1.222 1.222 0 0 1-1.223-1.222V1.09Z" fill="#4AB8FF"/></svg>