<svg width="16" height="17" viewBox="0 0 16 17" fill="none" xmlns="http://www.w3.org/2000/svg">
<path d="M8.48528 11.1421L9.54594 12.2027L7.95495 13.7937C6.49049 15.2582 4.11612 15.2582 2.65165 13.7937C1.18718 12.3293 1.18718 9.95491 2.65165 8.49044L4.24264 6.89945L5.3033 7.96011L3.71231 9.5511C2.83363 10.4298 2.83363 11.8544 3.71231 12.7331C4.59099 13.6118 6.01561 13.6118 6.89429 12.7331L8.48528 11.1421Z" fill="#212121"/>
<path d="M7.42462 5.83879L6.36396 4.77813L7.95495 3.18714C9.41942 1.72267 11.7938 1.72267 13.2583 3.18714C14.7227 4.6516 14.7227 7.02597 13.2583 8.49044L11.6673 10.0814L10.6066 9.02077L12.1976 7.42978C13.0763 6.5511 13.0763 5.12648 12.1976 4.2478C11.3189 3.36912 9.89429 3.36912 9.01561 4.2478L7.42462 5.83879Z" fill="#212121"/>
<path d="M10.0763 5.30846L4.77297 10.6118L5.83363 11.6724L11.1369 6.36912L10.0763 5.30846Z" fill="#212121"/>
</svg>
