<svg width="22" height="27" fill="none" xmlns="http://www.w3.org/2000/svg"><path opacity=".25" d="M0 3.667A3.667 3.667 0 0 1 3.667 0h11.925c.973 0 1.905.386 2.593 1.074l2.741 2.74A3.667 3.667 0 0 1 22 6.409v16.814a3.667 3.667 0 0 1-3.667 3.667H3.667A3.667 3.667 0 0 1 0 23.222V3.667Z" fill="#0085D4"/><path d="M5.561 18v-4.9h1.715c.383 0 .7.065.952.196.252.126.439.301.56.525.126.22.189.469.189.749 0 .266-.06.511-.182.735a1.26 1.26 0 0 1-.553.525c-.252.13-.574.196-.966.196h-.973V18h-.742Zm.742-2.583h.938c.35 0 .6-.075.749-.224.154-.154.231-.362.231-.623 0-.27-.077-.48-.231-.63-.15-.154-.399-.231-.749-.231h-.938v1.708ZM9.71 18v-4.9h1.59c.573 0 1.045.1 1.413.301.374.2.649.485.826.854.182.364.273.798.273 1.302 0 .5-.09.933-.273 1.302a1.882 1.882 0 0 1-.826.847c-.368.196-.84.294-1.414.294H9.71Zm.742-.63h.82c.443 0 .793-.072 1.05-.217.26-.145.447-.352.56-.623.116-.27.174-.595.174-.973s-.058-.705-.175-.98a1.231 1.231 0 0 0-.56-.63c-.256-.15-.606-.224-1.05-.224h-.819v3.647Zm4.18.63v-4.9h3.073v.602h-2.33v1.547h1.931v.595h-1.932V18h-.742Z" fill="#000"/><path d="M14.667 1.09c0-.602.488-1.09 1.09-1.09a3.27 3.27 0 0 1 2.312.958l2.974 2.973A3.27 3.27 0 0 1 22 6.243a1.09 1.09 0 0 1-1.09 1.09h-5.02a1.222 1.222 0 0 1-1.223-1.222V1.09Z" fill="#4AB8FF"/></svg>