<svg width="22" height="27" fill="none" xmlns="http://www.w3.org/2000/svg"><path opacity=".25" d="M0 3.667A3.667 3.667 0 0 1 3.667 0h11.925c.973 0 1.905.386 2.593 1.074l2.741 2.74A3.667 3.667 0 0 1 22 6.409v16.814a3.667 3.667 0 0 1-3.667 3.667H3.667A3.667 3.667 0 0 1 0 23.222V3.667Z" fill="#0085D4"/><path d="M5.834 18v-4.9H7.55c.383 0 .7.065.952.196.252.126.44.301.56.525.126.22.19.469.19.749 0 .266-.061.511-.183.735-.116.22-.3.394-.553.525-.252.13-.574.196-.966.196h-.973V18h-.742Zm.742-2.583h.938c.35 0 .6-.075.75-.224.153-.154.23-.362.23-.623 0-.27-.077-.48-.23-.63-.15-.154-.4-.231-.75-.231h-.938v1.708ZM9.984 18v-4.9h1.715c.383 0 .7.065.952.196.252.126.438.301.56.525.126.22.189.469.189.749 0 .266-.06.511-.182.735a1.26 1.26 0 0 1-.553.525c-.252.13-.574.196-.966.196h-.973V18h-.742Zm.742-2.583h.938c.35 0 .6-.075.749-.224.154-.154.23-.362.23-.623 0-.27-.076-.48-.23-.63-.15-.154-.4-.231-.75-.231h-.937v1.708ZM15.28 18v-4.298h-1.449V13.1h3.633v.602h-1.442V18h-.742Z" fill="#000"/><path d="M14.666 1.09c0-.602.488-1.09 1.09-1.09a3.27 3.27 0 0 1 2.312.958l2.974 2.973a3.27 3.27 0 0 1 .957 2.312 1.09 1.09 0 0 1-1.09 1.09h-5.02a1.222 1.222 0 0 1-1.223-1.222V1.09Z" fill="#4AB8FF"/></svg>