<svg width="22" height="27" viewBox="0 0 22 27" fill="none" xmlns="http://www.w3.org/2000/svg">
<path opacity="0.25" d="M0 3.66667C0 1.64162 1.64162 0 3.66667 0H15.5923C16.5648 0 17.4974 0.386309 18.1851 1.07394L20.9261 3.81495C21.6137 4.50258 22 5.43521 22 6.40767V23.2222C22 25.2473 20.3584 26.8889 18.3333 26.8889H3.66667C1.64162 26.8889 0 25.2473 0 23.2222V3.66667Z" fill="#0085D4"/>
<path d="M5.8344 18V13.1H7.5494C7.93207 13.1 8.2494 13.1653 8.5014 13.296C8.7534 13.422 8.94007 13.597 9.0614 13.821C9.1874 14.0403 9.2504 14.29 9.2504 14.57C9.2504 14.836 9.18974 15.081 9.0684 15.305C8.95174 15.5243 8.7674 15.6993 8.5154 15.83C8.2634 15.9607 7.9414 16.026 7.5494 16.026H6.5764V18H5.8344ZM6.5764 15.417H7.5144C7.8644 15.417 8.11407 15.3423 8.2634 15.193C8.4174 15.039 8.4944 14.8313 8.4944 14.57C8.4944 14.2993 8.4174 14.0893 8.2634 13.94C8.11407 13.786 7.8644 13.709 7.5144 13.709H6.5764V15.417ZM9.98382 18V13.1H11.6988C12.0815 13.1 12.3988 13.1653 12.6508 13.296C12.9028 13.422 13.0895 13.597 13.2108 13.821C13.3368 14.0403 13.3998 14.29 13.3998 14.57C13.3998 14.836 13.3391 15.081 13.2178 15.305C13.1011 15.5243 12.9168 15.6993 12.6648 15.83C12.4128 15.9607 12.0908 16.026 11.6988 16.026H10.7258V18H9.98382ZM10.7258 15.417H11.6638C12.0138 15.417 12.2635 15.3423 12.4128 15.193C12.5668 15.039 12.6438 14.8313 12.6438 14.57C12.6438 14.2993 12.5668 14.0893 12.4128 13.94C12.2635 13.786 12.0138 13.709 11.6638 13.709H10.7258V15.417ZM15.2812 18V13.702H13.8322V13.1H17.4652V13.702H16.0232V18H15.2812Z" fill="black"/>
<path d="M14.666 1.08998C14.666 0.488003 15.154 0 15.756 0C16.6232 0 17.455 0.344512 18.0682 0.957748L21.0416 3.93114C21.6548 4.54438 21.9993 5.3761 21.9993 6.24335C21.9993 6.84533 21.5113 7.33333 20.9094 7.33333H15.8882C15.2132 7.33333 14.666 6.78613 14.666 6.11111V1.08998Z" fill="#4AB8FF"/>
</svg>
