<svg width="22" height="27" fill="none" xmlns="http://www.w3.org/2000/svg"><path opacity=".25" d="M0 3.667A3.667 3.667 0 0 1 3.667 0h11.925c.973 0 1.905.386 2.593 1.074l2.741 2.74A3.667 3.667 0 0 1 22 6.409v16.814a3.667 3.667 0 0 1-3.667 3.667H3.667A3.667 3.667 0 0 1 0 23.222V3.667Z" fill="#0085D4"/><path d="m5.603 18 1.512-2.478L5.59 13.1h.847l1.155 1.834L8.67 13.1h.833l-1.519 2.457L9.523 18h-.847l-1.162-1.848L6.436 18h-.833Zm6.278.084c-.36 0-.674-.063-.945-.189a1.505 1.505 0 0 1-.637-.539 1.556 1.556 0 0 1-.23-.833h.783a.943.943 0 0 0 .273.665c.177.182.427.273.75.273.284 0 .505-.068.664-.203a.67.67 0 0 0 .245-.532.69.69 0 0 0-.119-.42.85.85 0 0 0-.315-.266 2.785 2.785 0 0 0-.455-.189 37.517 37.517 0 0 1-.546-.182c-.378-.126-.663-.29-.854-.49-.187-.2-.28-.464-.28-.791a1.272 1.272 0 0 1 .19-.721c.134-.205.321-.364.56-.476.242-.117.524-.175.846-.175.317 0 .595.058.833.175a1.323 1.323 0 0 1 .777 1.211h-.784a.698.698 0 0 0-.098-.357.77.77 0 0 0-.287-.287.891.891 0 0 0-.462-.112.88.88 0 0 0-.58.175.614.614 0 0 0-.225.504c0 .191.056.338.168.441.112.103.266.189.462.259.196.065.42.142.672.231.243.08.46.175.651.287.191.112.343.259.455.441.117.182.175.413.175.693 0 .247-.063.478-.189.693-.126.21-.315.383-.567.518-.252.13-.562.196-.93.196ZM14.38 18v-4.9h.742v4.312h2.226V18H14.38Z" fill="#000"/><path d="M14.666 1.09c0-.602.488-1.09 1.09-1.09a3.27 3.27 0 0 1 2.312.958l2.974 2.973a3.27 3.27 0 0 1 .957 2.312 1.09 1.09 0 0 1-1.09 1.09h-5.02a1.222 1.222 0 0 1-1.223-1.222V1.09Z" fill="#4AB8FF"/></svg>