<svg width="30" height="40" viewBox="0 0 30 40" fill="none" xmlns="http://www.w3.org/2000/svg">
<path d="M1.61007 40H28.3801C29.2679 40 29.9902 39.2777 29.9902 38.3899V36.8577C29.9902 36.5341 29.7279 36.2717 29.4042 36.2717C29.0806 36.2717 28.8183 36.5341 28.8183 36.8577V38.3899C28.8183 38.6315 28.6217 38.8281 28.3801 38.8281H25.0591V33.6589C25.0591 33.3353 24.7969 33.0729 24.4732 33.0729C24.1495 33.0729 23.8872 33.3353 23.8872 33.6589V38.8281H6.10298V33.6589C6.10298 33.3353 5.84071 33.0729 5.51702 33.0729C5.19334 33.0729 4.93106 33.3353 4.93106 33.6589V38.8281H1.61007C1.36841 38.8281 1.17192 38.6315 1.17192 38.3899V32.8375C1.17192 30.5788 2.77425 29.0974 3.8543 28.6506L8.21057 26.9492C8.88677 28.1469 12.4368 34.4344 13.9162 37.0545C14.3905 37.8944 15.5995 37.895 16.0739 37.0543C16.3032 36.6481 21.4238 27.5752 21.771 26.9602C26.3183 28.7213 26.1436 28.6425 26.3841 28.7649C27.5957 29.3964 28.8183 30.9006 28.8183 32.8375V34.1232C28.8183 34.4468 29.0806 34.7092 29.4042 34.7092C29.7279 34.7092 29.9902 34.4468 29.9902 34.1232V32.8375C29.9902 30.2434 28.3394 28.4624 26.9206 27.7229C26.6006 27.5601 27.1092 27.7701 18.6994 24.5138L18.6982 22.9833C20.0403 22.0009 20.9699 20.4885 21.1776 18.7566C22.1932 18.6677 23.1019 18.0858 23.5544 17.1763C23.4836 18.03 24.1568 18.7928 25.0465 18.7928H26.7008C27.6817 18.7928 28.3976 17.866 28.1486 16.9166V16.9167L27.4692 14.3247C27.6156 14.0622 27.6993 13.7601 27.6993 13.4388C27.6993 12.6371 27.1796 11.9549 26.4597 11.7101V6.29949V6.29942C26.4596 5.78838 26.1759 5.32883 25.7191 5.09991H25.719L16.023 0.241826C15.3794 -0.0806087 14.6109 -0.0806087 13.9673 0.241826L4.27111 5.09991C3.81422 5.32883 3.53053 5.78846 3.53053 6.29949C3.53053 6.81053 3.81437 7.27008 4.27119 7.49907L6.90731 8.81991V13.674C6.90731 13.8114 6.92091 13.9464 6.94559 14.0779C6.44472 14.609 6.15345 15.3026 6.15345 15.9983C6.15345 17.4096 7.2842 18.6271 8.81223 18.7573C9.01435 20.4581 9.91048 21.9794 11.2874 22.9763V24.4893C11.2844 24.4905 3.66796 27.4651 3.42287 27.5608C3.41959 27.5622 3.41631 27.5635 3.41303 27.5648C1.76921 28.2413 0 30.1798 0 32.8374V38.3899C0 39.2778 0.722295 40 1.61007 40ZM12.9458 32.9521L11.4888 30.3716C11.6843 30.4819 11.921 30.5474 12.1628 30.5474C12.4985 30.5474 12.8144 30.427 13.0637 30.2086L13.4017 30.5466L12.9458 32.9521ZM15.861 27.2056C15.757 27.3096 15.6624 27.445 15.6032 27.5647H14.3936C14.3354 27.447 14.2407 27.3104 14.1358 27.2056L12.1935 25.2633C12.3666 25.0624 12.4593 24.8092 12.4593 24.527V23.6434C13.2837 23.9996 14.1663 24.1683 15.0756 24.1683C15.9467 24.1683 16.7754 23.9851 17.5269 23.6569L17.5276 24.5318C17.5284 24.8101 17.6266 25.0687 17.7964 25.2701L15.861 27.2056ZM16.0912 29.3729L15.6987 29.7654H14.2778L13.8954 29.3831L14.1357 29.1427C14.259 29.0193 14.3562 28.8674 14.4147 28.7367H15.582C15.6413 28.8691 15.7376 29.0193 15.8609 29.1427L16.0912 29.3729ZM15.0533 36.4783C15.0269 36.5246 14.9627 36.5245 14.9368 36.4783L13.8389 34.5339L14.5204 30.9374H15.4561L16.1409 34.5514L15.0533 36.4783ZM17.0338 32.9692L16.5748 30.5466L16.9226 30.1989C17.1734 30.4234 17.4935 30.5474 17.8342 30.5474C18.0736 30.5474 18.3025 30.4847 18.4962 30.3781L17.0338 32.9692ZM18.8826 25.8415L20.6667 26.5324C20.6037 26.6439 20.6293 26.5988 20.5456 26.7469L17.9739 29.3186C17.8978 29.3947 17.7703 29.3946 17.6942 29.3186L16.6897 28.3142C16.6167 28.2412 16.6128 28.1112 16.6897 28.0344L18.8826 25.8415ZM21.2233 17.5707V15.9346C21.9456 15.5978 22.2178 15.4403 22.4645 15.1899C22.5939 15.4358 22.6649 15.7117 22.6649 15.9909C22.6649 16.792 22.028 17.4374 21.2233 17.5707ZM26.7009 17.621H25.0466C24.8337 17.621 24.6785 17.4203 24.7325 17.2139L25.2704 15.1616C25.6609 15.2987 26.086 15.2989 26.477 15.1616L27.0149 17.2139C27.0691 17.42 26.9141 17.621 26.7009 17.621ZM25.8738 12.7851C26.2342 12.7851 26.5275 13.0784 26.5275 13.4388C26.5275 13.8089 26.2078 14.0959 25.8685 14.0923C25.5383 14.0895 25.22 13.8143 25.22 13.4388C25.2201 13.0784 25.5134 12.7851 25.8738 12.7851ZM25.2878 11.7102C24.5678 11.955 24.0482 12.6371 24.0482 13.4388C24.0482 13.7602 24.1319 14.0622 24.2783 14.3248L23.8363 16.0113C23.8364 16.0045 23.8368 15.9977 23.8368 15.991C23.8368 15.2628 23.5492 14.5494 23.0551 14.0165C23.0728 13.9044 23.083 13.7902 23.083 13.6741C23.083 13.1264 23.083 9.3079 23.083 8.81999L25.2879 7.71525V11.7102H25.2878ZM4.79613 6.4513C4.71871 6.41247 4.70246 6.34731 4.70246 6.29949C4.70246 6.25168 4.71871 6.18644 4.79613 6.14769L14.4922 1.2896C14.8071 1.13186 15.1831 1.13178 15.4981 1.2896L24.3276 5.71353H16.7633C16.5171 4.97249 15.8178 4.43637 14.9951 4.43637C13.9678 4.43637 13.1319 5.27219 13.1319 6.29949C13.1319 7.3268 13.9677 8.16262 14.9951 8.16262C15.8177 8.16262 16.517 7.6265 16.7633 6.88545H24.3275C24.1615 6.96866 17.8676 10.1221 15.4981 11.3094C15.1831 11.4672 14.8071 11.4672 14.4922 11.3094C13.9823 11.054 5.15904 6.6331 4.79613 6.4513ZM15.6863 6.29949C15.6863 6.6806 15.3762 6.99069 14.9951 6.99069C14.6139 6.99069 14.3038 6.6806 14.3038 6.29949C14.3038 5.91838 14.6139 5.60829 14.9951 5.60829C15.3762 5.60829 15.6863 5.91838 15.6863 6.29949ZM8.767 17.5721C7.96188 17.4418 7.32538 16.7973 7.32538 15.9983C7.32538 15.7289 7.40444 15.4573 7.54796 15.2121C7.73805 15.3983 7.92313 15.5408 8.767 15.9345V17.5721ZM8.57465 14.5276C8.27479 14.3659 8.07923 14.0365 8.07923 13.6741V13.311C9.80548 14.1518 11.6513 14.6642 13.5759 14.8357C13.8967 14.8648 14.1828 14.6265 14.2116 14.3041C14.2403 13.9818 14.0023 13.6971 13.6799 13.6685C11.7063 13.4926 9.82227 12.9291 8.07923 11.9945V9.40712L13.9672 12.3572C14.6061 12.6771 15.3737 12.6823 16.0229 12.3572L21.9109 9.40712V11.9945C20.1679 12.9291 18.2839 13.4926 16.3102 13.6685C15.9878 13.6972 15.7499 13.9818 15.7785 14.3041C15.8073 14.6265 16.0928 14.8647 16.4143 14.8357C18.3389 14.6642 20.1849 14.1518 21.9109 13.3109V13.674C21.9109 14.0364 21.716 14.3655 21.4155 14.5275C19.3815 15.6198 17.1605 16.1444 14.995 16.1444C12.7802 16.1445 10.5614 15.5959 8.57465 14.5276ZM9.93892 18.0208V16.4224C11.5845 17.0263 13.2924 17.3164 14.9951 17.3164C16.6971 17.3164 18.405 17.0266 20.0514 16.4224V18.0208C20.0514 20.7725 17.8059 22.9964 15.0756 22.9964C11.9679 22.9963 9.93892 20.5777 9.93892 18.0208ZM11.0953 25.8226L13.307 28.0343C13.3822 28.1094 13.3812 28.24 13.307 28.3141L12.3026 29.3186C12.2265 29.3947 12.0989 29.3946 12.0228 29.3186L9.43077 26.7267L9.31335 26.5186L11.0953 25.8226Z" fill="#4AB8FF"/>
</svg>
