<svg width="30" height="40" fill="none" xmlns="http://www.w3.org/2000/svg"><path d="M1.61 40h26.77c.888 0 1.61-.722 1.61-1.61v-1.532a.586.586 0 1 0-1.172 0v1.532a.439.439 0 0 1-.438.438h-3.32v-5.17a.586.586 0 1 0-1.173 0v5.17H6.103v-5.17a.586.586 0 1 0-1.172 0v5.17h-3.32a.439.439 0 0 1-.44-.438v-5.553c0-2.258 1.603-3.74 2.683-4.186l4.357-1.702 5.705 10.105c.474.84 1.684.841 2.158 0L21.77 26.96c4.547 1.761 4.373 1.682 4.613 1.805 1.212.631 2.434 2.136 2.434 4.072v1.286a.586.586 0 1 0 1.172 0v-1.285c0-2.595-1.65-4.376-3.07-5.115-.32-.163.19.047-8.22-3.21l-.002-1.53a6.15 6.15 0 0 0 2.48-4.226c1.015-.09 1.924-.671 2.376-1.58a1.496 1.496 0 0 0 1.493 1.616H26.7c.98 0 1.697-.927 1.448-1.876l-.68-2.592a1.829 1.829 0 0 0-1.01-2.615V6.3c0-.512-.283-.971-.74-1.2L16.023.242a2.305 2.305 0 0 0-2.056 0L4.271 5.1c-.457.229-.74.688-.74 1.2 0 .51.283.97.74 1.2l2.636 1.32v4.854c0 .137.014.272.039.404-.501.531-.793 1.225-.793 1.92 0 1.412 1.131 2.63 2.66 2.76a6.08 6.08 0 0 0 2.474 4.218v1.513a525799.545 525799.545 0 0 1-7.874 3.076C1.769 28.24 0 30.18 0 32.837v5.553C0 39.278.722 40 1.61 40Zm11.336-7.048-1.457-2.58c.195.11.432.175.674.175.335 0 .651-.12.9-.338l.339.338-.456 2.405Zm2.915-5.746a1.428 1.428 0 0 0-.258.359h-1.21a1.44 1.44 0 0 0-.257-.36l-1.942-1.942c.173-.2.265-.454.265-.736v-.884a6.555 6.555 0 0 0 2.617.525c.87 0 1.7-.183 2.45-.511l.002.875c0 .278.099.537.268.738l-1.935 1.936Zm.23 2.167-.392.392h-1.421l-.383-.382.24-.24c.124-.124.221-.276.28-.406h1.167c.06.132.156.282.279.406l.23.23Zm-1.038 7.105a.066.066 0 0 1-.116 0l-1.098-1.944.681-3.597h.936l.685 3.614-1.088 1.927Zm1.98-3.509-.458-2.422.348-.348a1.373 1.373 0 0 0 1.573.179l-1.462 2.591Zm1.85-7.128 1.784.691-.121.215-2.572 2.572a.2.2 0 0 1-.28 0l-1.004-1.005a.202.202 0 0 1 0-.28l2.193-2.192Zm2.34-8.27v-1.636c.723-.337.995-.495 1.242-.745.129.246.2.522.2.8 0 .802-.637 1.447-1.442 1.58Zm5.478.05h-1.654a.324.324 0 0 1-.314-.407l.537-2.052c.39.137.816.137 1.207 0l.538 2.052a.324.324 0 0 1-.314.407Zm-.827-4.836c.36 0 .654.293.654.654 0 .37-.32.657-.66.653a.661.661 0 0 1-.648-.653c0-.36.293-.654.654-.654Zm-.586-1.075a1.828 1.828 0 0 0-1.01 2.615l-.442 1.686v-.02a2.93 2.93 0 0 0-.78-1.974 2.3 2.3 0 0 0 .027-.343V8.82l2.205-1.105v3.995ZM4.796 6.451a.161.161 0 0 1-.094-.152c0-.047.017-.113.094-.151l9.696-4.858a1.127 1.127 0 0 1 1.006 0l8.83 4.424h-7.565a1.866 1.866 0 0 0-1.768-1.278A1.865 1.865 0 0 0 13.132 6.3c0 1.028.836 1.864 1.863 1.864.823 0 1.522-.537 1.768-1.278h7.564l-8.829 4.424a1.128 1.128 0 0 1-1.006 0L4.796 6.451Zm10.89-.152a.692.692 0 1 1-1.384-.001.692.692 0 0 1 1.384.001ZM8.767 17.572c-.805-.13-1.442-.775-1.442-1.574 0-.27.08-.54.223-.786.19.186.375.329 1.219.723v1.637Zm-.192-3.044a.969.969 0 0 1-.496-.854v-.363a15.67 15.67 0 0 0 5.497 1.525.587.587 0 0 0 .104-1.168 14.513 14.513 0 0 1-5.6-1.673V9.407l5.887 2.95c.64.32 1.407.325 2.056 0l5.888-2.95v2.588a14.512 14.512 0 0 1-5.6 1.674.586.586 0 1 0 .103 1.167 15.666 15.666 0 0 0 5.497-1.525v.363a.968.968 0 0 1-.495.854 13.59 13.59 0 0 1-6.421 1.616c-2.215 0-4.434-.548-6.42-1.616Zm1.364 3.493v-1.599c1.646.604 3.353.894 5.056.894 1.702 0 3.41-.29 5.056-.894v1.599a4.985 4.985 0 0 1-4.975 4.975c-3.108 0-5.137-2.418-5.137-4.975Zm1.156 7.802 2.212 2.211a.203.203 0 0 1 0 .28l-1.004 1.005a.2.2 0 0 1-.28 0L9.43 26.727l-.118-.208 1.782-.696Z" fill="#4AB8FF"/></svg>