<svg width="31" height="40" fill="none" xmlns="http://www.w3.org/2000/svg"><path d="M30.938 6.525 24.413 0H5v21.271c-2.797.24-5 2.59-5 5.448 0 1.64.727 3.113 1.875 4.117V40h1.288l2.306-2.306L7.775 40h1.287v-4.063h21.876V6.526ZM24.688 1.6l4.65 4.65h-4.65V1.6ZM.938 26.72a4.536 4.536 0 0 1 4.53-4.532A4.536 4.536 0 0 1 10 26.72a4.536 4.536 0 0 1-4.531 4.531A4.536 4.536 0 0 1 .937 26.72Zm4.53 9.65-2.655 2.656v-7.528c.787.44 1.692.69 2.656.69.963 0 1.869-.25 2.656-.69v7.528l-2.656-2.657ZM9.064 35v-4.164a5.456 5.456 0 0 0 1.874-4.117 5.475 5.475 0 0 0-5-5.448V.937H23.75v6.25H30V35H9.062Z" fill="#4AB8FF"/><path d="M9.22 5h7.5v.938h-7.5V5Zm0 2.5h5v.937h-5V7.5Zm0 3.75h17.5v.938H9.22v-.938Zm0 2.5h17.5v.938H9.22v-.938Zm0 5h17.5v.937H9.22v-.937Zm2.5 2.5h12.5v.938h-12.5v-.938Zm-2.5-5h17.5v.938H9.22v-.938ZM19.218 25h7.5v.938h-7.5V25Zm2.5 2.5h5v.938h-5V27.5ZM5.469 29.688a2.972 2.972 0 0 0 2.968-2.97A2.972 2.972 0 0 0 5.47 23.75a2.972 2.972 0 0 0-2.97 2.969 2.972 2.972 0 0 0 2.969 2.968Zm0-5c1.12 0 2.031.91 2.031 2.03 0 1.12-.911 2.032-2.031 2.032a2.034 2.034 0 0 1-2.032-2.031c0-1.12.912-2.032 2.032-2.032Z" fill="#4AB8FF"/></svg>