<svg width="31" height="40" viewBox="0 0 31 40" fill="none" xmlns="http://www.w3.org/2000/svg">
<path d="M30.9375 6.52461L24.4129 0H5V21.2714C2.20336 21.5102 0 23.8612 0 26.7188C0 28.3594 0.727187 29.8323 1.875 30.8356V40H3.16289L5.46875 37.6941L7.77461 40H9.0625V35.9375H30.9375V6.52461ZM24.6875 1.60039L29.3371 6.25H24.6875V1.60039ZM0.9375 26.7188C0.9375 24.2202 2.97023 22.1875 5.46875 22.1875C7.96727 22.1875 10 24.2202 10 26.7188C10 29.2173 7.96727 31.25 5.46875 31.25C2.97023 31.25 0.9375 29.2173 0.9375 26.7188ZM5.46875 36.3684L2.8125 39.0246V31.4968C3.59961 31.9361 4.50516 32.1876 5.46875 32.1876C6.43234 32.1876 7.33789 31.9361 8.125 31.4968V39.0246L5.46875 36.3684ZM9.0625 35V30.8356C10.2103 29.8323 10.9375 28.3594 10.9375 26.7188C10.9375 23.8613 8.73414 21.5102 5.9375 21.2714V0.9375H23.75V7.1875H30V35H9.0625Z" fill="#4AB8FF"/>
<path d="M9.21973 5.00024H16.7197V5.93774H9.21973V5.00024Z" fill="#4AB8FF"/>
<path d="M9.21973 7.49976H14.2197V8.43726H9.21973V7.49976Z" fill="#4AB8FF"/>
<path d="M9.21973 11.25H26.7197V12.1875H9.21973V11.25Z" fill="#4AB8FF"/>
<path d="M9.21973 13.75H26.7197V14.6875H9.21973V13.75Z" fill="#4AB8FF"/>
<path d="M9.21973 18.7498H26.7197V19.6873H9.21973V18.7498Z" fill="#4AB8FF"/>
<path d="M11.7197 21.25H24.2197V22.1875H11.7197V21.25Z" fill="#4AB8FF"/>
<path d="M9.21973 16.2502H26.7197V17.1877H9.21973V16.2502Z" fill="#4AB8FF"/>
<path d="M19.2178 25H26.7178V25.9375H19.2178V25Z" fill="#4AB8FF"/>
<path d="M21.7178 27.5H26.7178V28.4375H21.7178V27.5Z" fill="#4AB8FF"/>
<path d="M5.46875 29.6875C7.1057 29.6875 8.4375 28.3557 8.4375 26.7188C8.4375 25.0818 7.1057 23.75 5.46875 23.75C3.8318 23.75 2.5 25.0818 2.5 26.7188C2.5 28.3557 3.8318 29.6875 5.46875 29.6875ZM5.46875 24.6875C6.58883 24.6875 7.5 25.5987 7.5 26.7188C7.5 27.8388 6.58883 28.75 5.46875 28.75C4.34867 28.75 3.4375 27.8388 3.4375 26.7188C3.4375 25.5987 4.34867 24.6875 5.46875 24.6875Z" fill="#4AB8FF"/>
</svg>
