<svg width="36" height="35" fill="none" xmlns="http://www.w3.org/2000/svg"><path d="M3.495 23.917a2.333 2.333 0 1 0 0 4.667 2.333 2.333 0 0 0 0-4.667Zm0 3.5a1.167 1.167 0 1 1 0-2.333 1.167 1.167 0 0 1 0 2.333Zm.005 1.75a3.5 3.5 0 0 0-3.5 3.5v1.75a.583.583 0 0 0 1.167 0v-1.75a2.333 2.333 0 0 1 4.666 0v1.75a.583.583 0 0 0 1.167 0v-1.75a3.5 3.5 0 0 0-3.5-3.5Zm9.338-5.25a2.333 2.333 0 1 0 0 4.667 2.333 2.333 0 0 0 0-4.667Zm0 3.5a1.167 1.167 0 1 1 0-2.333 1.167 1.167 0 0 1 0 2.333Zm-.007 1.75a3.5 3.5 0 0 0-3.5 3.5v1.75a.583.583 0 0 0 1.167 0v-1.75a2.333 2.333 0 0 1 4.666 0v1.75a.583.583 0 1 0 1.167 0v-1.75a3.5 3.5 0 0 0-3.5-3.5Zm9.339-5.25a2.333 2.333 0 1 0 0 4.667 2.333 2.333 0 0 0 0-4.667Zm0 3.5a1.167 1.167 0 1 1 0-2.333 1.167 1.167 0 0 1 0 2.333Zm-.008 1.75a3.5 3.5 0 0 0-3.5 3.5v1.75a.583.583 0 0 0 1.167 0v-1.75a2.333 2.333 0 1 1 4.666 0v1.75a.583.583 0 0 0 1.167 0v-1.75a3.5 3.5 0 0 0-3.5-3.5Zm9.338-5.25a2.333 2.333 0 1 0 0 4.667 2.333 2.333 0 0 0 0-4.667Zm0 3.5a1.167 1.167 0 1 1 0-2.333 1.167 1.167 0 0 1 0 2.333Zm.005 1.75a3.503 3.503 0 0 0-3.5 3.5v1.75a.583.583 0 0 0 1.167 0v-1.75a2.333 2.333 0 0 1 4.666 0v1.75a.583.583 0 0 0 1.167 0v-1.75a3.503 3.503 0 0 0-3.5-3.5ZM3.495 12.832a2.333 2.333 0 1 0 0 4.666 2.333 2.333 0 0 0 0-4.666Zm0 3.5a1.167 1.167 0 1 1 0-2.334 1.167 1.167 0 0 1 0 2.334Z" fill="#4AB8FF"/><path d="M3.5 18.084a3.5 3.5 0 0 0-3.5 3.5v1.75a.583.583 0 1 0 1.167 0v-1.75a2.333 2.333 0 0 1 4.666 0v1.75a.583.583 0 1 0 1.167 0v-1.75a3.5 3.5 0 0 0-3.5-3.5Zm9.338-5.252a2.333 2.333 0 1 0 0 4.666 2.333 2.333 0 0 0 0-4.666Zm0 3.5a1.167 1.167 0 1 1 0-2.334 1.167 1.167 0 0 1 0 2.334Zm-.007 1.752a3.5 3.5 0 0 0-3.5 3.5v1.75a.583.583 0 1 0 1.167 0v-1.75a2.333 2.333 0 0 1 4.666 0v1.75a.583.583 0 1 0 1.167 0v-1.75a3.5 3.5 0 0 0-3.5-3.5Zm9.339-5.252a2.333 2.333 0 1 0 0 4.666 2.333 2.333 0 0 0 0-4.666Zm0 3.5a1.167 1.167 0 1 1 0-2.334 1.167 1.167 0 0 1 0 2.334Zm-.008 1.752a3.5 3.5 0 0 0-3.5 3.5v1.75a.583.583 0 1 0 1.167 0v-1.75a2.333 2.333 0 1 1 4.666 0v1.75a.583.583 0 1 0 1.167 0v-1.75a3.5 3.5 0 0 0-3.5-3.5Zm9.338-5.252a2.333 2.333 0 1 0 0 4.666 2.333 2.333 0 0 0 0-4.666Zm0 3.5a1.167 1.167 0 1 1 0-2.334 1.167 1.167 0 0 1 0 2.334Zm.005 1.752a3.503 3.503 0 0 0-3.5 3.5v1.75a.583.583 0 1 0 1.167 0v-1.75a2.333 2.333 0 0 1 4.666 0v1.75a.583.583 0 1 0 1.167 0v-1.75a3.503 3.503 0 0 0-3.5-3.5ZM29.754 0h-24.5a.583.583 0 0 0-.583.583v10.5c0 .322.261.584.583.584h24.5a.583.583 0 0 0 .583-.584V.583A.583.583 0 0 0 29.754 0Zm-.583 10.5H5.838V1.167H29.17V10.5Z" fill="#4AB8FF"/><path d="M23.338 2.917c-2.29 0-4.083 1.283-4.083 2.916 0 1.634 1.794 2.917 4.083 2.917 2.29 0 4.084-1.283 4.084-2.917 0-1.633-1.794-2.916-4.084-2.916Zm0 4.666c-1.58 0-2.916-.801-2.916-1.75 0-.829 1.02-1.545 2.333-1.712v1.712c0 .155.061.303.17.413l1.253 1.252a4.545 4.545 0 0 1-.84.085Zm2.054-.521-1.47-1.47V4.12c1.313.167 2.333.883 2.333 1.712-.052.533-.38.999-.863 1.229ZM8.745 2.917H7.578a.583.583 0 0 0 0 1.166h1.167a.583.583 0 0 0 0-1.166Zm8.167 0h-6.417a.583.583 0 0 0 0 1.166h6.417a.583.583 0 0 0 0-1.166ZM13.995 5.25H7.578a.583.583 0 0 0 0 1.166h6.417a.583.583 0 0 0 0-1.167Zm2.919 0h-1.167a.583.583 0 1 0 0 1.166h1.167a.583.583 0 0 0 0-1.167Zm-6.419 2.332H7.578a.583.583 0 0 0 0 1.167h2.917a.583.583 0 0 0 0-1.167Zm6.422 0H12.25a.583.583 0 0 0 0 1.167h4.667a.583.583 0 0 0 0-1.167Z" fill="#4AB8FF"/></svg>