<svg width="36" height="35" viewBox="0 0 36 35" fill="none" xmlns="http://www.w3.org/2000/svg">
<path d="M3.49543 23.9172C2.20678 23.9172 1.16211 24.9619 1.16211 26.2506C1.16211 27.5392 2.20678 28.5839 3.49543 28.5839C4.78408 28.5839 5.82875 27.5392 5.82875 26.2506C5.82875 24.9619 4.78408 23.9172 3.49543 23.9172ZM3.49543 27.4172C2.85107 27.4172 2.32877 26.8949 2.32877 26.2506C2.32877 25.6062 2.85107 25.0839 3.49543 25.0839C4.13979 25.0839 4.66209 25.6062 4.66209 26.2506C4.66209 26.8949 4.13979 27.4172 3.49543 27.4172Z" fill="#4AB8FF"/>
<path d="M3.49998 29.1666C1.56697 29.1666 0 30.7336 0 32.6666V34.4166C0 34.7387 0.261186 34.9999 0.58333 34.9999C0.905474 34.9999 1.16666 34.7387 1.16666 34.4166V32.6666C1.16666 31.378 2.21133 30.3333 3.49998 30.3333C4.78863 30.3333 5.8333 31.378 5.8333 32.6666V34.4166C5.8333 34.7387 6.09449 34.9999 6.41663 34.9999C6.73877 34.9999 6.99996 34.7387 6.99996 34.4166V32.6666C6.99996 30.7336 5.43299 29.1666 3.49998 29.1666Z" fill="#4AB8FF"/>
<path d="M12.8382 23.9172C11.5496 23.9172 10.5049 24.9619 10.5049 26.2506C10.5049 27.5392 11.5496 28.5839 12.8382 28.5839C14.1269 28.5839 15.1715 27.5392 15.1715 26.2506C15.1715 24.9619 14.1269 23.9172 12.8382 23.9172ZM12.8382 27.4172C12.1938 27.4172 11.6715 26.8949 11.6715 26.2506C11.6715 25.6062 12.1938 25.0839 12.8382 25.0839C13.4826 25.0839 14.0049 25.6062 14.0049 26.2506C14.0049 26.8949 13.4826 27.4172 12.8382 27.4172Z" fill="#4AB8FF"/>
<path d="M12.831 29.1666C10.898 29.1666 9.33105 30.7336 9.33105 32.6666V34.4166C9.33105 34.7387 9.59224 34.9999 9.91438 34.9999C10.2365 34.9999 10.4977 34.7387 10.4977 34.4166V32.6666C10.4977 31.378 11.5424 30.3333 12.831 30.3333C14.1197 30.3333 15.1644 31.378 15.1644 32.6666V34.4166C15.1644 34.7387 15.4255 34.9999 15.7477 34.9999C16.0698 34.9999 16.331 34.7387 16.331 34.4166V32.6666C16.331 30.7336 14.764 29.1666 12.831 29.1666Z" fill="#4AB8FF"/>
<path d="M22.1693 23.9172C20.8806 23.9172 19.8359 24.9619 19.8359 26.2506C19.8359 27.5392 20.8806 28.5839 22.1693 28.5839C23.4579 28.5839 24.5026 27.5392 24.5026 26.2506C24.5026 24.9619 23.4579 23.9172 22.1693 23.9172ZM22.1693 27.4172C21.5249 27.4172 21.0026 26.8949 21.0026 26.2506C21.0026 25.6062 21.5249 25.0839 22.1693 25.0839C22.8136 25.0839 23.3359 25.6062 23.3359 26.2506C23.3359 26.8949 22.8136 27.4172 22.1693 27.4172Z" fill="#4AB8FF"/>
<path d="M22.1621 29.1666C20.2291 29.1666 18.6621 30.7336 18.6621 32.6666V34.4166C18.6621 34.7387 18.9233 34.9999 19.2454 34.9999C19.5676 34.9999 19.8288 34.7387 19.8288 34.4166V32.6666C19.8288 31.378 20.8734 30.3333 22.1621 30.3333C23.4507 30.3333 24.4954 31.378 24.4954 32.6666V34.4166C24.4954 34.7387 24.7566 34.9999 25.0787 34.9999C25.4009 34.9999 25.6621 34.7387 25.6621 34.4166V32.6666C25.6621 30.7336 24.0951 29.1666 22.1621 29.1666Z" fill="#4AB8FF"/>
<path d="M31.5003 23.9172C30.2117 23.9172 29.167 24.9619 29.167 26.2506C29.167 27.5392 30.2117 28.5839 31.5003 28.5839C32.789 28.5839 33.8336 27.5392 33.8336 26.2506C33.8336 24.9619 32.789 23.9172 31.5003 23.9172ZM31.5003 27.4172C30.856 27.4172 30.3337 26.8949 30.3337 26.2506C30.3337 25.6062 30.856 25.0839 31.5003 25.0839C32.1447 25.0839 32.667 25.6062 32.667 26.2506C32.667 26.8949 32.1447 27.4172 31.5003 27.4172Z" fill="#4AB8FF"/>
<path d="M31.5049 29.1666C29.5727 29.1685 28.0068 30.7344 28.0049 32.6666V34.4166C28.0049 34.7387 28.2661 34.9999 28.5882 34.9999C28.9104 34.9999 29.1715 34.7387 29.1715 34.4166V32.6666C29.1715 31.378 30.2162 30.3333 31.5049 30.3333C32.7935 30.3333 33.8382 31.378 33.8382 32.6666V34.4166C33.8382 34.7387 34.0994 34.9999 34.4215 34.9999C34.7437 34.9999 35.0048 34.7387 35.0048 34.4166V32.6666C35.0029 30.7344 33.4371 29.1685 31.5049 29.1666Z" fill="#4AB8FF"/>
<path d="M3.49543 12.8317C2.20678 12.8317 1.16211 13.8763 1.16211 15.165C1.16211 16.4536 2.20678 17.4983 3.49543 17.4983C4.78408 17.4983 5.82875 16.4536 5.82875 15.165C5.82875 13.8763 4.78408 12.8317 3.49543 12.8317ZM3.49543 16.3316C2.85107 16.3316 2.32877 15.8093 2.32877 15.165C2.32877 14.5206 2.85107 13.9983 3.49543 13.9983C4.13979 13.9983 4.66209 14.5206 4.66209 15.165C4.66209 15.8093 4.13979 16.3316 3.49543 16.3316Z" fill="#4AB8FF"/>
<path d="M3.49998 18.0839C1.56697 18.0839 0 19.6508 0 21.5838V23.3338C0 23.656 0.261186 23.9172 0.58333 23.9172C0.905474 23.9172 1.16666 23.656 1.16666 23.3338V21.5838C1.16666 20.2952 2.21133 19.2505 3.49998 19.2505C4.78863 19.2505 5.8333 20.2952 5.8333 21.5838V23.3338C5.8333 23.656 6.09449 23.9172 6.41663 23.9172C6.73877 23.9172 6.99996 23.656 6.99996 23.3338V21.5838C6.99996 19.6508 5.43299 18.0839 3.49998 18.0839Z" fill="#4AB8FF"/>
<path d="M12.8382 12.8317C11.5496 12.8317 10.5049 13.8763 10.5049 15.165C10.5049 16.4536 11.5496 17.4983 12.8382 17.4983C14.1269 17.4983 15.1715 16.4536 15.1715 15.165C15.1715 13.8763 14.1269 12.8317 12.8382 12.8317ZM12.8382 16.3316C12.1938 16.3316 11.6715 15.8093 11.6715 15.165C11.6715 14.5206 12.1938 13.9983 12.8382 13.9983C13.4826 13.9983 14.0049 14.5206 14.0049 15.165C14.0049 15.8093 13.4826 16.3316 12.8382 16.3316Z" fill="#4AB8FF"/>
<path d="M12.831 18.0839C10.898 18.0839 9.33105 19.6508 9.33105 21.5838V23.3338C9.33105 23.656 9.59224 23.9172 9.91438 23.9172C10.2365 23.9172 10.4977 23.656 10.4977 23.3338V21.5838C10.4977 20.2952 11.5424 19.2505 12.831 19.2505C14.1197 19.2505 15.1644 20.2952 15.1644 21.5838V23.3338C15.1644 23.656 15.4255 23.9172 15.7477 23.9172C16.0698 23.9172 16.331 23.656 16.331 23.3338V21.5838C16.331 19.6508 14.764 18.0839 12.831 18.0839Z" fill="#4AB8FF"/>
<path d="M22.1693 12.8317C20.8806 12.8317 19.8359 13.8763 19.8359 15.165C19.8359 16.4536 20.8806 17.4983 22.1693 17.4983C23.4579 17.4983 24.5026 16.4536 24.5026 15.165C24.5026 13.8763 23.4579 12.8317 22.1693 12.8317ZM22.1693 16.3316C21.5249 16.3316 21.0026 15.8093 21.0026 15.165C21.0026 14.5206 21.5249 13.9983 22.1693 13.9983C22.8136 13.9983 23.3359 14.5206 23.3359 15.165C23.3359 15.8093 22.8136 16.3316 22.1693 16.3316Z" fill="#4AB8FF"/>
<path d="M22.1621 18.0839C20.2291 18.0839 18.6621 19.6508 18.6621 21.5838V23.3338C18.6621 23.656 18.9233 23.9172 19.2454 23.9172C19.5676 23.9172 19.8288 23.656 19.8288 23.3338V21.5838C19.8288 20.2952 20.8734 19.2505 22.1621 19.2505C23.4507 19.2505 24.4954 20.2952 24.4954 21.5838V23.3338C24.4954 23.656 24.7566 23.9172 25.0787 23.9172C25.4009 23.9172 25.6621 23.656 25.6621 23.3338V21.5838C25.6621 19.6508 24.0951 18.0839 22.1621 18.0839Z" fill="#4AB8FF"/>
<path d="M31.5003 12.8317C30.2117 12.8317 29.167 13.8763 29.167 15.165C29.167 16.4536 30.2117 17.4983 31.5003 17.4983C32.789 17.4983 33.8336 16.4536 33.8336 15.165C33.8336 13.8763 32.789 12.8317 31.5003 12.8317ZM31.5003 16.3316C30.856 16.3316 30.3337 15.8093 30.3337 15.165C30.3337 14.5206 30.856 13.9983 31.5003 13.9983C32.1447 13.9983 32.667 14.5206 32.667 15.165C32.667 15.8093 32.1447 16.3316 31.5003 16.3316Z" fill="#4AB8FF"/>
<path d="M31.5049 18.0839C29.5727 18.0858 28.0068 19.6516 28.0049 21.5838V23.3338C28.0049 23.656 28.2661 23.9172 28.5882 23.9172C28.9104 23.9172 29.1715 23.656 29.1715 23.3338V21.5838C29.1715 20.2952 30.2162 19.2505 31.5049 19.2505C32.7935 19.2505 33.8382 20.2952 33.8382 21.5838V23.3338C33.8382 23.656 34.0994 23.9172 34.4215 23.9172C34.7437 23.9172 35.0048 23.656 35.0048 23.3338V21.5838C35.0029 19.6516 33.4371 18.0858 31.5049 18.0839Z" fill="#4AB8FF"/>
<path d="M29.7541 0H5.25423C4.93208 0 4.6709 0.261186 4.6709 0.58333V11.0833C4.6709 11.4054 4.93208 11.6666 5.25423 11.6666H29.7541C30.0762 11.6666 30.3374 11.4054 30.3374 11.0833V0.58333C30.3374 0.261186 30.0762 0 29.7541 0ZM29.1708 10.4999H5.83756V1.16666H29.1708V10.4999Z" fill="#4AB8FF"/>
<path d="M23.3382 2.91663C21.0486 2.91663 19.2549 4.19995 19.2549 5.83328C19.2549 7.4666 21.0486 8.74993 23.3382 8.74993C25.6278 8.74993 27.4215 7.4666 27.4215 5.83328C27.4215 4.19995 25.6278 2.91663 23.3382 2.91663ZM23.3382 7.58327C21.7574 7.58327 20.4215 6.78177 20.4215 5.83328C20.4215 5.00436 21.4418 4.28803 22.7549 4.12062V5.83328C22.7549 5.988 22.8164 6.13632 22.9258 6.24569L24.1776 7.49752C23.901 7.55206 23.6201 7.58079 23.3382 7.58327ZM25.3921 7.06177L23.9215 5.59178V4.12062C25.2346 4.28803 26.2548 5.00436 26.2548 5.83328C26.2026 6.36571 25.8752 6.83194 25.3921 7.06177Z" fill="#4AB8FF"/>
<path d="M8.74511 2.91663H7.57845C7.2563 2.91663 6.99512 3.17781 6.99512 3.49996C6.99512 3.8221 7.2563 4.08329 7.57845 4.08329H8.74511C9.06725 4.08329 9.32844 3.8221 9.32844 3.49996C9.32844 3.17781 9.06725 2.91663 8.74511 2.91663Z" fill="#4AB8FF"/>
<path d="M16.9121 2.91663H10.4954C10.1733 2.91663 9.91211 3.17781 9.91211 3.49996C9.91211 3.8221 10.1733 4.08329 10.4954 4.08329H16.9121C17.2342 4.08329 17.4954 3.8221 17.4954 3.49996C17.4954 3.17781 17.2342 2.91663 16.9121 2.91663Z" fill="#4AB8FF"/>
<path d="M13.9951 5.24939H7.57845C7.2563 5.24939 6.99512 5.51058 6.99512 5.83272C6.99512 6.15486 7.2563 6.41605 7.57845 6.41605H13.9951C14.3172 6.41605 14.5784 6.15486 14.5784 5.83272C14.5784 5.51058 14.3172 5.24939 13.9951 5.24939Z" fill="#4AB8FF"/>
<path d="M16.9141 5.24939H15.7474C15.4252 5.24939 15.1641 5.51058 15.1641 5.83272C15.1641 6.15486 15.4252 6.41605 15.7474 6.41605H16.9141C17.2362 6.41605 17.4974 6.15486 17.4974 5.83272C17.4974 5.51058 17.2362 5.24939 16.9141 5.24939Z" fill="#4AB8FF"/>
<path d="M10.4951 7.58215H7.57845C7.2563 7.58215 6.99512 7.84334 6.99512 8.16548C6.99512 8.48763 7.2563 8.74881 7.57845 8.74881H10.4951C10.8172 8.74881 11.0784 8.48763 11.0784 8.16548C11.0784 7.84334 10.8172 7.58215 10.4951 7.58215Z" fill="#4AB8FF"/>
<path d="M16.917 7.58215H12.2503C11.9282 7.58215 11.667 7.84334 11.667 8.16548C11.667 8.48763 11.9282 8.74881 12.2503 8.74881H16.917C17.2391 8.74881 17.5003 8.48763 17.5003 8.16548C17.5003 7.84334 17.2391 7.58215 16.917 7.58215Z" fill="#4AB8FF"/>
</svg>
