<svg width="38" height="38" fill="none" xmlns="http://www.w3.org/2000/svg"><path d="m34.6 30.461-1.534-.532a3.704 3.704 0 0 0 1.411-2.91v-1.123a3.714 3.714 0 0 0-3.71-3.71 3.714 3.714 0 0 0-3.71 3.71v1.124c0 1.178.553 2.228 1.411 2.909l-1.534.532a5.014 5.014 0 0 0-2.051 1.341 5.05 5.05 0 0 0-2.05-1.34l-1.534-.534a3.704 3.704 0 0 0 1.411-2.908v-1.125a3.714 3.714 0 0 0-3.71-3.71 3.714 3.714 0 0 0-3.71 3.71v1.125a3.71 3.71 0 0 0 1.41 2.909l-1.533.532a5.05 5.05 0 0 0-2.05 1.341 5.015 5.015 0 0 0-2.051-1.34l-1.534-.534a3.704 3.704 0 0 0 1.41-2.908v-1.125a3.714 3.714 0 0 0-3.71-3.71 3.714 3.714 0 0 0-3.71 3.71v1.125c0 1.178.553 2.228 1.412 2.909L3.4 30.46A5.063 5.063 0 0 0 0 35.24v2.197c0 .31.252.562.562.562h17.91a.562.562 0 1 0 0-1.124h-5.58V35.24a3.938 3.938 0 0 1 2.644-3.717l2.285-.793h2.358l2.285.793a3.938 3.938 0 0 1 2.645 3.717v1.636h-4.01a.562.562 0 0 0 0 1.124h16.339c.31 0 .562-.252.562-.562V35.24a5.063 5.063 0 0 0-3.4-4.779ZM4.647 25.895a2.589 2.589 0 0 1 2.586-2.585 2.589 2.589 0 0 1 2.585 2.585v1.125a2.589 2.589 0 0 1-2.585 2.586 2.589 2.589 0 0 1-2.586-2.586v-1.125Zm-3.523 10.98V35.24a3.938 3.938 0 0 1 2.645-3.717l2.284-.793h2.36l2.284.793a3.9 3.9 0 0 1 1.739 1.207 5.048 5.048 0 0 0-.669 2.51v1.636H1.124Zm15.29-10.98A2.589 2.589 0 0 1 19 23.31a2.589 2.589 0 0 1 2.586 2.585v1.125A2.589 2.589 0 0 1 19 29.606a2.589 2.589 0 0 1-2.586-2.586v-1.125Zm11.767 0a2.589 2.589 0 0 1 2.586-2.585 2.589 2.589 0 0 1 2.586 2.585v1.125a2.589 2.589 0 0 1-2.586 2.586 2.589 2.589 0 0 1-2.586-2.586v-1.125Zm8.695 10.98H26.233V35.24a5.04 5.04 0 0 0-.669-2.51 3.904 3.904 0 0 1 1.739-1.207l2.285-.793h2.358l2.285.793a3.938 3.938 0 0 1 2.645 3.717v1.636ZM.562 19.562h2.873a.562.562 0 1 0 0-1.124h-2.31v-2.211a3.939 3.939 0 0 1 3.877-3.934c.62.47 1.394.748 2.23.748a3.69 3.69 0 0 0 2.232-.748 3.939 3.939 0 0 1 3.877 3.934v2.21H6.077a.562.562 0 0 0 0 1.125h7.826c.31 0 .562-.251.562-.562v-2.773c0-2.45-1.751-4.5-4.068-4.961a3.688 3.688 0 0 0 .546-1.935V7.683a3.714 3.714 0 0 0-3.71-3.71 3.714 3.714 0 0 0-3.71 3.71V9.33c0 .709.2 1.371.545 1.935A5.067 5.067 0 0 0 0 16.227V19c0 .31.252.562.562.562Zm4.085-11.88a2.589 2.589 0 0 1 2.586-2.585 2.589 2.589 0 0 1 2.585 2.586V9.33a2.589 2.589 0 0 1-2.585 2.586A2.589 2.589 0 0 1 4.647 9.33V7.683ZM37.438 0h-15.64a.562.562 0 0 0 0 1.124h15.078V15.89H16.865V1.124h2.323a.562.562 0 1 0 0-1.124h-2.886a.562.562 0 0 0-.562.562V19c0 .31.252.562.562.562h21.136a.563.563 0 0 0 .563-.562V.562A.562.562 0 0 0 37.438 0ZM16.864 18.438v-1.424h20.012v1.424H16.865Z" fill="#4AB8FF"/><path d="M27.471 4.422h7.046a.562.562 0 1 0 0-1.124H27.47a.562.562 0 1 0 0 1.124Zm0 3.898h7.046a.562.562 0 1 0 0-1.125H27.47a.562.562 0 0 0 0 1.124Zm-8.81 3.185c0 .31.252.562.562.562h15.29a.562.562 0 0 0 0-1.124h-15.29a.562.562 0 0 0-.562.562Zm3.299-9.256a3.564 3.564 0 0 0-3.56 3.56 3.564 3.564 0 0 0 3.56 3.56 3.564 3.564 0 0 0 3.56-3.56 3.564 3.564 0 0 0-3.56-3.56Zm0 5.996a2.439 2.439 0 0 1-2.435-2.436 2.439 2.439 0 0 1 2.436-2.436 2.439 2.439 0 0 1 2.435 2.436 2.439 2.439 0 0 1-2.435 2.436Z" fill="#4AB8FF"/></svg>