<svg width="22" height="27" viewBox="0 0 22 27" fill="none" xmlns="http://www.w3.org/2000/svg">
<path opacity="0.25" d="M0 3.66667C0 1.64162 1.64162 0 3.66667 0H15.5923C16.5648 0 17.4974 0.386309 18.1851 1.07394L20.9261 3.81495C21.6137 4.50258 22 5.43521 22 6.40767V23.2222C22 25.2473 20.3584 26.8889 18.3333 26.8889H3.66667C1.64162 26.8889 0 25.2473 0 23.2222V3.66667Z" fill="#0085D4"/>
<path d="M3.72796 18V13.1H5.31696C5.89096 13.1 6.36229 13.2003 6.73096 13.401C7.10429 13.6017 7.37962 13.8863 7.55696 14.255C7.73896 14.619 7.82996 15.053 7.82996 15.557C7.82996 16.0563 7.73896 16.4903 7.55696 16.859C7.37962 17.223 7.10429 17.5053 6.73096 17.706C6.36229 17.902 5.89096 18 5.31696 18H3.72796ZM4.46996 17.37H5.28896C5.73229 17.37 6.08229 17.2977 6.33896 17.153C6.60029 17.0083 6.78696 16.8007 6.89896 16.53C7.01562 16.2593 7.07396 15.935 7.07396 15.557C7.07396 15.179 7.01562 14.8523 6.89896 14.577C6.78696 14.3017 6.60029 14.0917 6.33896 13.947C6.08229 13.7977 5.73229 13.723 5.28896 13.723H4.46996V17.37ZM10.9108 18.084C10.4255 18.084 10.0008 17.9767 9.63683 17.762C9.27283 17.5473 8.98817 17.251 8.78283 16.873C8.5775 16.4903 8.47483 16.0493 8.47483 15.55C8.47483 15.0507 8.5775 14.612 8.78283 14.234C8.98817 13.8513 9.27283 13.5527 9.63683 13.338C10.0008 13.1233 10.4255 13.016 10.9108 13.016C11.3962 13.016 11.8208 13.1233 12.1848 13.338C12.5488 13.5527 12.8312 13.8513 13.0318 14.234C13.2372 14.612 13.3398 15.0507 13.3398 15.55C13.3398 16.0493 13.2372 16.4903 13.0318 16.873C12.8312 17.251 12.5488 17.5473 12.1848 17.762C11.8208 17.9767 11.3962 18.084 10.9108 18.084ZM10.9108 17.419C11.2468 17.419 11.5385 17.3443 11.7858 17.195C12.0378 17.0457 12.2338 16.831 12.3738 16.551C12.5138 16.271 12.5838 15.9373 12.5838 15.55C12.5838 15.1627 12.5138 14.829 12.3738 14.549C12.2338 14.269 12.0378 14.0543 11.7858 13.905C11.5385 13.7557 11.2468 13.681 10.9108 13.681C10.5748 13.681 10.2808 13.7557 10.0288 13.905C9.77683 14.0543 9.58083 14.269 9.44083 14.549C9.3055 14.829 9.23783 15.1627 9.23783 15.55C9.23783 15.9373 9.3055 16.271 9.44083 16.551C9.58083 16.831 9.77683 17.0457 10.0288 17.195C10.2808 17.3443 10.5748 17.419 10.9108 17.419ZM16.3504 18.084C15.8651 18.084 15.4451 17.979 15.0904 17.769C14.7404 17.5543 14.4698 17.258 14.2784 16.88C14.0871 16.4973 13.9914 16.0563 13.9914 15.557C13.9914 15.053 14.0871 14.612 14.2784 14.234C14.4698 13.8513 14.7404 13.5527 15.0904 13.338C15.4451 13.1233 15.8651 13.016 16.3504 13.016C16.9244 13.016 17.3934 13.156 17.7574 13.436C18.1214 13.716 18.3524 14.108 18.4504 14.612H17.6244C17.5591 14.3273 17.4191 14.101 17.2044 13.933C16.9898 13.765 16.7028 13.681 16.3434 13.681C15.8534 13.681 15.4661 13.849 15.1814 14.185C14.8968 14.5163 14.7544 14.9737 14.7544 15.557C14.7544 16.1357 14.8968 16.5907 15.1814 16.922C15.4661 17.2533 15.8534 17.419 16.3434 17.419C16.7028 17.419 16.9898 17.3397 17.2044 17.181C17.4191 17.0223 17.5591 16.8053 17.6244 16.53H18.4504C18.3524 17.0153 18.1214 17.3957 17.7574 17.671C17.3934 17.9463 16.9244 18.084 16.3504 18.084Z" fill="black"/>
<path d="M14.666 1.08998C14.666 0.488003 15.154 0 15.756 0C16.6232 0 17.455 0.344512 18.0682 0.957748L21.0416 3.93114C21.6548 4.54438 21.9993 5.3761 21.9993 6.24335C21.9993 6.84533 21.5113 7.33333 20.9094 7.33333H15.8882C15.2132 7.33333 14.666 6.78613 14.666 6.11111V1.08998Z" fill="#4AB8FF"/>
</svg>
