<svg width="22" height="27" viewBox="0 0 22 27" fill="none" xmlns="http://www.w3.org/2000/svg">
<path opacity="0.25" d="M0 3.66667C0 1.64162 1.64162 0 3.66667 0H15.5923C16.5648 0 17.4974 0.386309 18.1851 1.07394L20.9261 3.81495C21.6137 4.50258 22 5.43521 22 6.40767V23.2222C22 25.2473 20.3584 26.8889 18.3333 26.8889H3.66667C1.64162 26.8889 0 25.2473 0 23.2222V3.66667Z" fill="#0085D4"/>
<path d="M5.56096 18V13.1H7.27596C7.65863 13.1 7.97597 13.1653 8.22796 13.296C8.47997 13.422 8.66663 13.597 8.78796 13.821C8.91396 14.0403 8.97696 14.29 8.97696 14.57C8.97696 14.836 8.9163 15.081 8.79497 15.305C8.6783 15.5243 8.49396 15.6993 8.24197 15.83C7.98996 15.9607 7.66796 16.026 7.27596 16.026H6.30296V18H5.56096ZM6.30296 15.417H7.24096C7.59096 15.417 7.84063 15.3423 7.98996 15.193C8.14397 15.039 8.22097 14.8313 8.22097 14.57C8.22097 14.2993 8.14397 14.0893 7.98996 13.94C7.84063 13.786 7.59096 13.709 7.24096 13.709H6.30296V15.417ZM9.71038 18V13.1H11.2994C11.8734 13.1 12.3447 13.2003 12.7134 13.401C13.0867 13.6017 13.362 13.8863 13.5394 14.255C13.7214 14.619 13.8124 15.053 13.8124 15.557C13.8124 16.0563 13.7214 16.4903 13.5394 16.859C13.362 17.223 13.0867 17.5053 12.7134 17.706C12.3447 17.902 11.8734 18 11.2994 18H9.71038ZM10.4524 17.37H11.2714C11.7147 17.37 12.0647 17.2977 12.3214 17.153C12.5827 17.0083 12.7694 16.8007 12.8814 16.53C12.998 16.2593 13.0564 15.935 13.0564 15.557C13.0564 15.179 12.998 14.8523 12.8814 14.577C12.7694 14.3017 12.5827 14.0917 12.3214 13.947C12.0647 13.7977 11.7147 13.723 11.2714 13.723H10.4524V17.37ZM14.6323 18V13.1H17.7053V13.702H15.3743V15.249H17.3063V15.844H15.3743V18H14.6323Z" fill="black"/>
<path d="M14.667 1.08998C14.667 0.488003 15.155 0 15.757 0C16.6242 0 17.4559 0.344512 18.0692 0.957748L21.0426 3.93114C21.6558 4.54438 22.0003 5.3761 22.0003 6.24335C22.0003 6.84533 21.5123 7.33333 20.9103 7.33333H15.8892C15.2142 7.33333 14.667 6.78613 14.667 6.11111V1.08998Z" fill="#4AB8FF"/>
</svg>
