<svg width="22" height="27" viewBox="0 0 22 27" fill="none" xmlns="http://www.w3.org/2000/svg">
<path opacity="0.25" d="M0 3.66667C0 1.64162 1.64162 0 3.66667 0H15.5923C16.5648 0 17.4974 0.386309 18.1851 1.07394L20.9261 3.81495C21.6137 4.50258 22 5.43521 22 6.40767V23.2222C22 25.2473 20.3584 26.8889 18.3333 26.8889H3.66667C1.64162 26.8889 0 25.2473 0 23.2222V3.66667Z" fill="#0085D4"/>
<path d="M5.60307 18L7.11507 15.522L5.58907 13.1H6.43607L7.59107 14.934L8.66907 13.1H9.50207L7.98307 15.557L9.52307 18H8.67607L7.51407 16.152L6.43607 18H5.60307ZM11.8811 18.084C11.5218 18.084 11.2068 18.021 10.9361 17.895C10.6654 17.769 10.4531 17.5893 10.2991 17.356C10.1498 17.1227 10.0728 16.845 10.0681 16.523H10.8521C10.8568 16.7843 10.9478 17.006 11.1251 17.188C11.3024 17.37 11.5521 17.461 11.8741 17.461C12.1588 17.461 12.3804 17.3933 12.5391 17.258C12.7024 17.118 12.7841 16.9407 12.7841 16.726C12.7841 16.5533 12.7444 16.4133 12.6651 16.306C12.5904 16.1987 12.4854 16.11 12.3501 16.04C12.2194 15.97 12.0678 15.907 11.8951 15.851C11.7224 15.795 11.5404 15.7343 11.3491 15.669C10.9711 15.543 10.6864 15.3797 10.4951 15.179C10.3084 14.9783 10.2151 14.7147 10.2151 14.388C10.2104 14.1127 10.2734 13.8723 10.4041 13.667C10.5394 13.4617 10.7261 13.303 10.9641 13.191C11.2068 13.0743 11.4891 13.016 11.8111 13.016C12.1284 13.016 12.4061 13.0743 12.6441 13.191C12.8868 13.3077 13.0758 13.471 13.2111 13.681C13.3464 13.8863 13.4164 14.1267 13.4211 14.402H12.6371C12.6371 14.276 12.6044 14.157 12.5391 14.045C12.4738 13.9283 12.3781 13.8327 12.2521 13.758C12.1261 13.6833 11.9721 13.646 11.7901 13.646C11.5568 13.6413 11.3631 13.6997 11.2091 13.821C11.0598 13.9423 10.9851 14.1103 10.9851 14.325C10.9851 14.5163 11.0411 14.6633 11.1531 14.766C11.2651 14.8687 11.4191 14.955 11.6151 15.025C11.8111 15.0903 12.0351 15.1673 12.2871 15.256C12.5298 15.3353 12.7468 15.431 12.9381 15.543C13.1294 15.655 13.2811 15.802 13.3931 15.984C13.5098 16.166 13.5681 16.397 13.5681 16.677C13.5681 16.9243 13.5051 17.1553 13.3791 17.37C13.2531 17.58 13.0641 17.7527 12.8121 17.888C12.5601 18.0187 12.2498 18.084 11.8811 18.084ZM14.3793 18V13.1H15.1213V17.412H17.3473V18H14.3793Z" fill="black"/>
<path d="M14.666 1.08998C14.666 0.488003 15.154 0 15.756 0C16.6232 0 17.455 0.344512 18.0682 0.957748L21.0416 3.93114C21.6548 4.54438 21.9993 5.3761 21.9993 6.24335C21.9993 6.84533 21.5113 7.33333 20.9094 7.33333H15.8882C15.2132 7.33333 14.666 6.78613 14.666 6.11111V1.08998Z" fill="#4AB8FF"/>
</svg>
