<svg width="10" height="11" fill="none" xmlns="http://www.w3.org/2000/svg"><path d="M9.608 8.977a5.184 5.184 0 0 0-1.072-1.652 4.99 4.99 0 0 0-1.59-1.113l-.015-.007a3.463 3.463 0 0 0 1.367-2.778C8.298 1.534 6.822 0 5 0S1.702 1.534 1.702 3.427c0 1.143.539 2.156 1.367 2.78l-.016.006a4.946 4.946 0 0 0-1.589 1.114A5.207 5.207 0 0 0 .392 8.978 5.309 5.309 0 0 0 0 10.887a.114.114 0 0 0 .03.08.105.105 0 0 0 .076.033h.798a.108.108 0 0 0 .107-.108A4.2 4.2 0 0 1 2.178 8.07 3.889 3.889 0 0 1 5 6.854c1.066 0 2.068.431 2.822 1.215a4.2 4.2 0 0 1 1.167 2.823.108.108 0 0 0 .107.108h.798a.102.102 0 0 0 .076-.033.11.11 0 0 0 .03-.08 5.322 5.322 0 0 0-.392-1.91ZM5 5.804a2.23 2.23 0 0 1-1.617-.696 2.41 2.41 0 0 1-.67-1.68c0-.635.238-1.232.67-1.681A2.23 2.23 0 0 1 5 1.05c.61 0 1.185.248 1.617.697a2.41 2.41 0 0 1 .67 1.68 2.41 2.41 0 0 1-.67 1.68A2.23 2.23 0 0 1 5 5.805Z" fill="#fff"/></svg>