<svg width="9" height="5" viewBox="0 0 9 5" fill="none" xmlns="http://www.w3.org/2000/svg">
<path d="M1.37922 0.22175L4.5042 3.16808L7.62918 0.22175C7.70375 0.151447 7.79227 0.0956792 7.88969 0.0576314C7.98712 0.0195835 8.09154 7.40767e-10 8.19699 0C8.30244 -7.40763e-10 8.40687 0.0195835 8.50429 0.0576314C8.60172 0.0956792 8.69024 0.151447 8.76481 0.22175C8.83937 0.292053 8.89852 0.375515 8.93887 0.467371C8.97923 0.559227 9 0.657677 9 0.757101C9 0.856525 8.97923 0.954975 8.93887 1.04683C8.89852 1.13869 8.83937 1.22215 8.76481 1.29245L5.06798 4.77793C4.99347 4.84832 4.90497 4.90417 4.80753 4.94228C4.7101 4.98039 4.60565 5 4.50017 5C4.39469 5 4.29024 4.98039 4.19281 4.94228C4.09537 4.90417 4.00687 4.84832 3.93236 4.77793L0.235536 1.29245C0.160872 1.2222 0.101637 1.13875 0.06122 1.04689C0.0208035 0.955029 0 0.856553 0 0.757101C0 0.657648 0.0208035 0.559172 0.06122 0.467309C0.101637 0.375447 0.160872 0.292001 0.235536 0.22175C0.549646 -0.0668082 1.06511 -0.0744018 1.37922 0.22175V0.22175Z" fill="#3D6AFF"/>
</svg>
