<svg width="8" height="4" viewBox="0 0 8 4" fill="none" xmlns="http://www.w3.org/2000/svg">
<path d="M4.03204e-08 3.53879C5.0354e-08 3.42402 0.050315 3.322 0.150944 3.23273L3.64421 0.1339C3.74483 0.0446328 3.85984 -3.61944e-07 3.98922 -3.50634e-07C4.1186 -3.39323e-07 4.24079 0.0446328 4.3558 0.1339L7.84906 3.23273C7.94969 3.322 8 3.43039 8 3.55792C8 3.68544 7.94969 3.78746 7.84906 3.86397C7.74843 3.94049 7.63342 3.98512 7.50404 3.99787C7.37466 4.01063 7.25966 3.96599 7.15903 3.86397L4.01078 1.0712L0.862534 3.86397C0.761905 3.95324 0.639712 3.99787 0.495957 3.99787C0.352201 3.99787 0.237197 3.95324 0.150944 3.86397C0.0503149 3.7492 3.14016e-08 3.64081 4.03204e-08 3.53879Z" fill="#999999"/>
</svg>
