<svg width="20" height="20" fill="none" xmlns="http://www.w3.org/2000/svg"><path d="M11 7.74 7.95 5.45v9L11 12.16l2.95-2.21L11 7.74Zm0 0L7.95 5.45v9L11 12.16l2.95-2.21L11 7.74Zm0 0L7.95 5.45v9L11 12.16l2.95-2.21L11 7.74ZM8.95 2.02V0C6.94.2 5.11 1 3.63 2.21l1.42 1.43a7.941 7.941 0 0 1 3.9-1.62ZM3.64 5.05 2.21 3.63A9.949 9.949 0 0 0 0 8.95h2.02c.18-1.46.76-2.79 1.62-3.9Zm-1.62 5.9H0c.2 2.01 1 3.84 2.21 5.32l1.43-1.43a7.868 7.868 0 0 1-1.62-3.89Zm1.61 6.74a9.982 9.982 0 0 0 5.32 2.21v-2.02a7.941 7.941 0 0 1-3.9-1.62l-1.42 1.43Zm16.32-7.74c0 5.16-3.92 9.42-8.95 9.95v-2.02c3.92-.52 6.95-3.88 6.95-7.93S14.92 2.54 11 2.02V0c5.03.53 8.95 4.79 8.95 9.95Z" fill="#4AB8FF"/></svg>