<svg width="17" height="25" fill="none" xmlns="http://www.w3.org/2000/svg"><path d="M5.395 4.464 7.938 1.92v11.21a.563.563 0 1 0 1.125 0V1.92l2.543 2.544a.56.56 0 0 0 .796 0 .563.563 0 0 0 0-.796L8.898.165a.563.563 0 0 0-.795 0L4.599 3.668a.563.563 0 0 0 .796.796Z" fill="#fff"/><path d="M15.75 6.567h-4.623a.562.562 0 1 0 0 1.125h4.06v16.183H1.814V7.692h4.06a.562.562 0 1 0 0-1.125H1.25a.562.562 0 0 0-.563.562v17.308c0 .311.252.563.563.563h14.5a.563.563 0 0 0 .563-.563V7.13a.562.562 0 0 0-.563-.562Z" fill="#fff"/></svg>