<svg width="17" height="25" viewBox="0 0 17 25" fill="none" xmlns="http://www.w3.org/2000/svg">
<path d="M5.3948 4.4636L7.9379 1.9205V13.1296C7.9379 13.4404 8.18976 13.6922 8.50042 13.6922C8.81108 13.6922 9.06294 13.4404 9.06294 13.1296V1.9205L11.606 4.4636C11.7158 4.5734 11.8598 4.6283 12.0038 4.6283C12.1477 4.6283 12.2917 4.5734 12.4015 4.4636C12.6212 4.24384 12.6212 3.88773 12.4015 3.66805L8.89816 0.164705C8.67848 -0.0549015 8.32229 -0.0549015 8.10268 0.164705L4.59933 3.66805C4.37965 3.88781 4.37965 4.24392 4.59933 4.4636C4.81894 4.68321 5.17512 4.68321 5.3948 4.4636Z" fill="white"/>
<path d="M15.7504 6.56677H11.1269C10.8162 6.56677 10.5644 6.81855 10.5644 7.12929C10.5644 7.44002 10.8162 7.6918 11.1269 7.6918H15.1879V23.8748H1.81253V7.6918H5.87352C6.18418 7.6918 6.43604 7.44002 6.43604 7.12929C6.43604 6.81855 6.18418 6.56677 5.87352 6.56677H1.25002C0.939357 6.56677 0.6875 6.81855 0.6875 7.12929V24.4373C0.6875 24.748 0.939357 24.9998 1.25002 24.9998H15.7504C16.0611 24.9998 16.3129 24.748 16.3129 24.4373V7.12929C16.3129 6.81863 16.0611 6.56677 15.7504 6.56677Z" fill="white"/>
</svg>
