<svg width="11" height="9" viewBox="0 0 11 9" fill="none" xmlns="http://www.w3.org/2000/svg">
<path d="M10.9782 3.90878C10.5469 2.79322 9.79818 1.82848 8.82459 1.1338C7.85099 0.439116 6.69518 0.0449447 5.5 0C4.30482 0.0449447 3.14901 0.439116 2.17541 1.1338C1.20182 1.82848 0.453116 2.79322 0.0218446 3.90878C-0.00728154 3.98934 -0.00728154 4.07756 0.0218446 4.15812C0.453116 5.27368 1.20182 6.23842 2.17541 6.9331C3.14901 7.62778 4.30482 8.02195 5.5 8.0669C6.69518 8.02195 7.85099 7.62778 8.82459 6.9331C9.79818 6.23842 10.5469 5.27368 10.9782 4.15812C11.0073 4.07756 11.0073 3.98934 10.9782 3.90878ZM5.5 7.33354C3.55661 7.33354 1.50322 5.8925 0.758866 4.03345C1.50322 2.1744 3.55661 0.733354 5.5 0.733354C7.44339 0.733354 9.49678 2.1744 10.2411 4.03345C9.49678 5.8925 7.44339 7.33354 5.5 7.33354Z" fill="#BBBBBB"/>
<path d="M5.4997 1.83333C5.06457 1.83333 4.63921 1.96236 4.27742 2.20411C3.91562 2.44586 3.63363 2.78946 3.46711 3.19147C3.3006 3.59348 3.25703 4.03584 3.34192 4.46261C3.42681 4.88938 3.63634 5.28139 3.94403 5.58907C4.25171 5.89676 4.64372 6.10629 5.07049 6.19118C5.49726 6.27607 5.93962 6.23251 6.34163 6.06599C6.74364 5.89947 7.08724 5.61748 7.32899 5.25568C7.57074 4.89389 7.69977 4.46853 7.69977 4.0334C7.69977 3.4499 7.46798 2.89031 7.05538 2.47772C6.64279 2.06512 6.0832 1.83333 5.4997 1.83333ZM5.4997 5.5001C5.20962 5.5001 4.92604 5.41408 4.68485 5.25292C4.44365 5.09175 4.25565 4.86269 4.14464 4.59468C4.03363 4.32667 4.00459 4.03177 4.06118 3.74725C4.11777 3.46274 4.25746 3.2014 4.46259 2.99628C4.66771 2.79115 4.92905 2.65146 5.21356 2.59487C5.49808 2.53828 5.79298 2.56732 6.06099 2.67833C6.329 2.78935 6.55806 2.97734 6.71923 3.21854C6.88039 3.45973 6.96641 3.74331 6.96641 4.0334C6.96641 4.42239 6.81188 4.79545 6.53682 5.07051C6.26176 5.34558 5.8887 5.5001 5.4997 5.5001Z" fill="#BBBBBB"/>
</svg>
