<svg width="10" height="11" viewBox="0 0 10 11" fill="none" xmlns="http://www.w3.org/2000/svg">
<path d="M9.60768 8.97688C9.35683 8.35941 8.99281 7.79853 8.53588 7.3255C8.08034 6.85111 7.54071 6.47287 6.9468 6.21168C6.94148 6.20892 6.93616 6.20754 6.93084 6.20477C7.75929 5.58291 8.29785 4.56997 8.29785 3.42714C8.29785 1.53392 6.8218 0 5 0C3.1782 0 1.70215 1.53392 1.70215 3.42714C1.70215 4.56997 2.24071 5.58291 3.06916 6.20616C3.06384 6.20892 3.05852 6.2103 3.0532 6.21307C2.45746 6.47425 1.92289 6.84874 1.46412 7.32688C1.00762 7.80028 0.643652 8.36106 0.392318 8.97827C0.145408 9.58251 0.0122432 10.2303 3.32524e-05 10.8867C-0.000321672 10.9014 0.00216771 10.9161 0.00735478 10.9298C0.0125419 10.9436 0.0203216 10.9561 0.0302357 10.9666C0.0401498 10.9772 0.0519976 10.9856 0.0650809 10.9913C0.0781643 10.9971 0.0922186 11 0.106416 11H0.904283C0.962793 11 1.00934 10.9516 1.01066 10.8922C1.03726 9.82538 1.44949 8.82626 2.17821 8.06897C2.93219 7.28543 3.93352 6.85427 5 6.85427C6.06648 6.85427 7.06781 7.28543 7.82179 8.06897C8.55051 8.82626 8.96274 9.82538 8.98934 10.8922C8.99067 10.953 9.03721 11 9.09572 11H9.89358C9.90778 11 9.92184 10.9971 9.93492 10.9913C9.948 10.9856 9.95985 10.9772 9.96976 10.9666C9.97968 10.9561 9.98746 10.9436 9.99265 10.9298C9.99783 10.9161 10.0003 10.9014 9.99997 10.8867C9.98667 10.2261 9.85502 9.58354 9.60768 8.97688ZM5 5.80402C4.38963 5.80402 3.81517 5.55666 3.38299 5.10754C2.95081 4.65842 2.71278 4.06143 2.71278 3.42714C2.71278 2.79284 2.95081 2.19585 3.38299 1.74673C3.81517 1.29761 4.38963 1.05025 5 1.05025C5.61037 1.05025 6.18483 1.29761 6.61701 1.74673C7.04919 2.19585 7.28722 2.79284 7.28722 3.42714C7.28722 4.06143 7.04919 4.65842 6.61701 5.10754C6.18483 5.55666 5.61037 5.80402 5 5.80402Z" fill="white"/>
</svg>
