<svg width="17" height="17" viewBox="0 0 17 17" fill="none" xmlns="http://www.w3.org/2000/svg">
<path fill-rule="evenodd" clip-rule="evenodd" d="M11.0947 11.0948C11.1934 10.996 11.3106 10.9177 11.4396 10.8642C11.5686 10.8107 11.7069 10.7832 11.8465 10.7832C11.9861 10.7832 12.1244 10.8107 12.2534 10.8642C12.3824 10.9177 12.4995 10.996 12.5982 11.0948L16.689 15.1856C16.8884 15.3848 17.0004 15.6551 17.0005 15.9369C17.0006 16.2188 16.8887 16.4892 16.6895 16.6885C16.4903 16.8879 16.22 17 15.9381 17.0001C15.6563 17.0002 15.3859 16.8883 15.1866 16.6891L11.0958 12.5983C10.997 12.4996 10.9186 12.3824 10.8652 12.2535C10.8117 12.1245 10.7842 11.9862 10.7842 11.8466C10.7842 11.7069 10.8117 11.5687 10.8652 11.4397C10.9186 11.3107 10.997 11.1935 11.0958 11.0948H11.0947Z" fill="white"/>
<path fill-rule="evenodd" clip-rule="evenodd" d="M6.90646 12.7504C7.6739 12.7504 8.43382 12.5992 9.14283 12.3055C9.85185 12.0119 10.4961 11.5814 11.0387 11.0387C11.5814 10.4961 12.0119 9.85185 12.3055 9.14283C12.5992 8.43382 12.7504 7.6739 12.7504 6.90646C12.7504 6.13902 12.5992 5.3791 12.3055 4.67009C12.0119 3.96107 11.5814 3.31684 11.0387 2.77418C10.4961 2.23152 9.85185 1.80106 9.14283 1.50737C8.43382 1.21369 7.6739 1.06253 6.90646 1.06253C5.35655 1.06253 3.87013 1.67823 2.77418 2.77418C1.67823 3.87013 1.06253 5.35655 1.06253 6.90646C1.06253 8.45637 1.67823 9.94279 2.77418 11.0387C3.87013 12.1347 5.35655 12.7504 6.90646 12.7504ZM13.8129 6.90646C13.8129 8.73817 13.0853 10.4949 11.7901 11.7901C10.4949 13.0853 8.73817 13.8129 6.90646 13.8129C5.07475 13.8129 3.31807 13.0853 2.02286 11.7901C0.727643 10.4949 0 8.73817 0 6.90646C0 5.07475 0.727643 3.31807 2.02286 2.02286C3.31807 0.727643 5.07475 0 6.90646 0C8.73817 0 10.4949 0.727643 11.7901 2.02286C13.0853 3.31807 13.8129 5.07475 13.8129 6.90646Z" fill="white"/>
</svg>
