<svg width="12" height="12" viewBox="0 0 12 12" fill="none" xmlns="http://www.w3.org/2000/svg">
<path fill-rule="evenodd" clip-rule="evenodd" d="M7.83152 7.83154C7.90117 7.76181 7.98389 7.70649 8.07494 7.66874C8.16599 7.631 8.26358 7.61157 8.36214 7.61157C8.46071 7.61157 8.5583 7.631 8.64935 7.66874C8.7404 7.70649 8.82312 7.76181 8.89277 7.83154L11.7803 10.719C11.921 10.8597 12.0001 11.0504 12.0002 11.2494C12.0002 11.4484 11.9213 11.6392 11.7806 11.7799C11.64 11.9206 11.4492 11.9997 11.2503 11.9998C11.0513 11.9999 10.8605 11.9209 10.7198 11.7803L7.83227 8.89279C7.76254 8.82313 7.70722 8.74042 7.66948 8.64937C7.63173 8.55832 7.6123 8.46072 7.6123 8.36216C7.6123 8.2636 7.63173 8.16601 7.66948 8.07496C7.70722 7.98391 7.76254 7.90119 7.83227 7.83154H7.83152Z" fill="black"/>
<path fill-rule="evenodd" clip-rule="evenodd" d="M4.875 9C5.4167 9 5.9531 8.89331 6.45357 8.686C6.95404 8.4787 7.40878 8.17486 7.79182 7.79182C8.17486 7.40878 8.4787 6.95404 8.686 6.45357C8.89331 5.9531 9 5.4167 9 4.875C9 4.3333 8.89331 3.7969 8.686 3.29643C8.4787 2.79596 8.17486 2.34123 7.79182 1.95818C7.40878 1.57514 6.95404 1.2713 6.45357 1.064C5.9531 0.856696 5.4167 0.75 4.875 0.75C3.78098 0.75 2.73177 1.1846 1.95818 1.95818C1.1846 2.73177 0.75 3.78098 0.75 4.875C0.75 5.96902 1.1846 7.01823 1.95818 7.79182C2.73177 8.5654 3.78098 9 4.875 9ZM9.75 4.875C9.75 6.16793 9.23639 7.40791 8.32215 8.32215C7.40791 9.23639 6.16793 9.75 4.875 9.75C3.58207 9.75 2.34209 9.23639 1.42785 8.32215C0.513615 7.40791 0 6.16793 0 4.875C0 3.58207 0.513615 2.34209 1.42785 1.42785C2.34209 0.513615 3.58207 0 4.875 0C6.16793 0 7.40791 0.513615 8.32215 1.42785C9.23639 2.34209 9.75 3.58207 9.75 4.875Z" fill="black"/>
</svg>
