<svg width="38" height="38" viewBox="0 0 38 38" fill="none" xmlns="http://www.w3.org/2000/svg">
<path d="M34.6001 30.4611L33.0662 29.9285C33.9249 29.2484 34.4772 28.1977 34.4772 27.0198V25.8955C34.4772 23.8498 32.8128 22.1854 30.7671 22.1854C28.7215 22.1854 27.0571 23.8498 27.0571 25.8955V27.0198C27.0571 28.1977 27.6096 29.2484 28.4684 29.9285L26.9344 30.4611C26.1406 30.7365 25.4428 31.1949 24.8827 31.802C24.3313 31.2068 23.6343 30.7394 22.833 30.4611L21.299 29.9285C22.1578 29.2484 22.7101 28.1977 22.7101 27.0198V25.8955C22.7101 23.8498 21.0456 22.1854 19 22.1854C16.9543 22.1854 15.2899 23.8498 15.2899 25.8955V27.0198C15.2899 28.1977 15.8425 29.2484 16.7009 29.9285L15.167 30.4611C14.3657 30.7394 13.6687 31.2068 13.1173 31.802C12.5572 31.1949 11.8593 30.7365 11.0658 30.4611L9.53159 29.9285C10.3903 29.2484 10.9426 28.1977 10.9426 27.0198V25.8955C10.9426 23.8498 9.2785 22.1854 7.23255 22.1854C5.1869 22.1854 3.52278 23.8498 3.52278 25.8955V27.0198C3.52278 28.1977 4.07507 29.2484 4.9338 29.9285L3.39985 30.4611C1.36638 31.167 0 33.0877 0 35.2404V37.4379C0 37.7484 0.251648 38.0001 0.562149 38.0001H18.4729C18.7834 38.0001 19.0351 37.7484 19.0351 37.4379C19.0351 37.1274 18.7834 36.8758 18.4729 36.8758H12.8914V35.2404C12.8914 33.5661 13.9543 32.0725 15.5358 31.5231L17.8206 30.7299H20.1794L22.4642 31.5231C24.0457 32.0725 25.1085 33.5661 25.1085 35.2404V36.8758H21.0984C20.7882 36.8758 20.5363 37.1274 20.5363 37.4379C20.5363 37.7484 20.7882 38.0001 21.0984 38.0001H37.4378C37.7483 38.0001 38 37.7484 38 37.4379V35.2404C38 33.0877 36.6336 31.167 34.6001 30.4611ZM4.64679 25.8955C4.64679 24.4697 5.80674 23.3097 7.23255 23.3097C8.65837 23.3097 9.81832 24.4697 9.81832 25.8955V27.0198C9.81832 28.4456 8.65837 29.6056 7.23255 29.6056C5.80674 29.6056 4.64679 28.4456 4.64679 27.0198V25.8955ZM1.1243 36.8758V35.2404C1.1243 33.5661 2.18684 32.0722 3.76863 31.5231L6.05346 30.7299H8.41223L10.6971 31.5234C11.3839 31.7617 11.9785 32.176 12.436 32.73C12.0078 33.4783 11.7671 34.3387 11.7671 35.2404V36.8758H1.1243ZM16.4142 25.8955C16.4142 24.4697 17.5742 23.3097 19 23.3097C20.4258 23.3097 21.5858 24.4697 21.5858 25.8955V27.0198C21.5858 28.4456 20.4258 29.6056 19 29.6056C17.5742 29.6056 16.4142 28.4456 16.4142 27.0198V25.8955ZM28.1814 25.8955C28.1814 24.4697 29.3413 23.3097 30.7671 23.3097C32.1929 23.3097 33.3529 24.4697 33.3529 25.8955V27.0198C33.3529 28.4456 32.1929 29.6056 30.7671 29.6056C29.3413 29.6056 28.1814 28.4456 28.1814 27.0198V25.8955ZM36.8757 36.8758H26.2328V35.2404C26.2328 34.3387 25.9922 33.478 25.564 32.73C26.0215 32.176 26.6161 31.7617 27.3029 31.5231L29.5877 30.7299H31.9465L34.2313 31.5231C35.8131 32.0722 36.8757 33.5661 36.8757 35.2404V36.8758Z" fill="#4AB8FF"/>
<path d="M0.562149 19.5622H3.43522C3.74572 19.5622 3.99737 19.3106 3.99737 19.0001C3.99737 18.6896 3.74572 18.4379 3.43522 18.4379H1.1243V16.227C1.1243 14.0764 2.85858 12.3245 5.00164 12.2934C5.62294 12.7628 6.39585 13.0414 7.23255 13.0414C8.06954 13.0414 8.84246 12.7628 9.46375 12.2934C11.6071 12.3245 13.3411 14.0764 13.3411 16.227V18.4379H6.07724C5.76674 18.4379 5.51509 18.6896 5.51509 19.0001C5.51509 19.3106 5.76674 19.5622 6.07724 19.5622H13.9032C14.2138 19.5622 14.4654 19.3106 14.4654 19.0001V16.227C14.4654 13.7764 12.714 11.7278 10.3973 11.2657C10.7429 10.7021 10.9426 10.0399 10.9426 9.33136V7.6826C10.9426 5.63695 9.2785 3.97253 7.23255 3.97253C5.1869 3.97253 3.52278 5.63695 3.52278 7.6826V9.33136C3.52278 10.0399 3.72253 10.7021 4.06811 11.2657C1.75139 11.7278 0 13.7764 0 16.227V19.0001C0 19.3106 0.251648 19.5622 0.562149 19.5622ZM4.64679 7.6826C4.64679 6.25679 5.80674 5.09683 7.23255 5.09683C8.65837 5.09683 9.81832 6.25679 9.81832 7.6826V9.33136C9.81832 10.7572 8.65837 11.9171 7.23255 11.9171C5.80674 11.9171 4.64679 10.7572 4.64679 9.33136V7.6826Z" fill="#4AB8FF"/>
<path d="M37.4385 0H21.7986C21.4884 0 21.2368 0.251648 21.2368 0.562149C21.2368 0.87265 21.4884 1.1243 21.7986 1.1243H36.8763V15.8895H16.8645V1.1243H19.1879C19.4984 1.1243 19.7501 0.87265 19.7501 0.562149C19.7501 0.251648 19.4984 0 19.1879 0H16.3024C15.9919 0 15.7402 0.251648 15.7402 0.562149V19C15.7402 19.3105 15.9919 19.5621 16.3024 19.5621H37.4385C37.749 19.5621 38.0006 19.3105 38.0006 19V0.562149C38.0006 0.251648 37.749 0 37.4385 0V0ZM16.8645 18.4378V17.0138H36.8763V18.4378H16.8645Z" fill="#4AB8FF"/>
<path d="M27.4713 4.4219H34.5166C34.8271 4.4219 35.0787 4.17026 35.0787 3.85976C35.0787 3.54926 34.8271 3.29761 34.5166 3.29761H27.4713C27.1608 3.29761 26.9092 3.54926 26.9092 3.85976C26.9092 4.17026 27.1608 4.4219 27.4713 4.4219Z" fill="#4AB8FF"/>
<path d="M27.4713 8.31937H34.5166C34.8271 8.31937 35.0787 8.06772 35.0787 7.75722C35.0787 7.44701 34.8271 7.19507 34.5166 7.19507H27.4713C27.1608 7.19507 26.9092 7.44701 26.9092 7.75722C26.9092 8.06772 27.1608 8.31937 27.4713 8.31937Z" fill="#4AB8FF"/>
<path d="M18.6611 11.5053C18.6611 11.8155 18.9128 12.0674 19.2233 12.0674H34.5132C34.8237 12.0674 35.0754 11.8155 35.0754 11.5053C35.0754 11.1948 34.8237 10.9431 34.5132 10.9431H19.2233C18.9128 10.9431 18.6611 11.1945 18.6611 11.5053Z" fill="#4AB8FF"/>
<path d="M21.9606 2.24878C19.9975 2.24878 18.4004 3.84593 18.4004 5.80896C18.4004 7.77198 19.9975 9.36885 21.9606 9.36885C23.9236 9.36885 25.5207 7.77198 25.5207 5.80896C25.5207 3.84593 23.9236 2.24878 21.9606 2.24878ZM21.9606 8.24484C20.6174 8.24484 19.5247 7.15214 19.5247 5.80896C19.5247 4.46548 20.6174 3.37279 21.9606 3.37279C23.3038 3.37279 24.3964 4.46548 24.3964 5.80896C24.3964 7.15214 23.3038 8.24484 21.9606 8.24484Z" fill="#4AB8FF"/>
</svg>
