<svg width="8" height="15" viewBox="0 0 8 15" fill="none" xmlns="http://www.w3.org/2000/svg">
<path d="M6.83016 15C6.68077 15.0005 6.53316 14.9675 6.39818 14.9035C6.2632 14.8395 6.14428 14.746 6.05016 14.63L1.22016 8.63C1.07308 8.45107 0.992676 8.22663 0.992676 7.995C0.992676 7.76338 1.07308 7.53893 1.22016 7.36L6.22016 1.36C6.3899 1.15578 6.63381 1.02736 6.89824 1.00298C7.16267 0.978601 7.42595 1.06026 7.63016 1.23C7.83438 1.39974 7.9628 1.64365 7.98718 1.90808C8.01156 2.1725 7.9299 2.43578 7.76016 2.64L3.29016 8L7.61016 13.36C7.73245 13.5068 7.81012 13.6855 7.834 13.8751C7.85788 14.0646 7.82697 14.257 7.74491 14.4296C7.66285 14.6021 7.53309 14.7475 7.37098 14.8486C7.20887 14.9497 7.0212 15.0022 6.83016 15Z" fill="#2B80FF"/>
</svg>
