<svg width="38" height="34" fill="none" xmlns="http://www.w3.org/2000/svg"><g clip-path="url(#a)" fill="#fff"><path fill-rule="evenodd" clip-rule="evenodd" d="M18.765 4.413c6.32 0 11.445 5.124 11.445 11.445 0 6.32-5.124 11.445-11.445 11.445-6.321 0-11.445-5.124-11.445-11.445 0-6.32 5.124-11.445 11.445-11.445Zm0-.532c6.615 0 11.977 5.362 11.977 11.977S25.38 27.835 18.765 27.835 6.788 22.474 6.788 15.858 12.15 3.881 18.765 3.881Z"/><path d="M17.227 15.12v-.086h.077l1.511.003v.153l-1.434-.002v.01h-.066v.077l-.606-.002v.027l.005.08h-2.077l.004.228v.079h-.078l-1.316-.008-.007.492 1.285.001h.077v.194h3.015v-.015l.154.002v.09l-.001.078h-3.166l-.003.196v.078h-.002l-.006.398 4.223.002v.154l-4.279-.002-.012.249-.004.074h-.073l-1.3-.006-.085.001.077.104.014.02v.002l1.3-.002v.148l.077.001-.108 6.745h.855v.089h-.867l-.013.012-.016.015h.985v.067h.023v.09l-1.07.002-.012.092-.006.055-.054.011-.025.006-.005.089-.003.074h-.074l-1.633-.008-1.11.026a8.88 8.88 0 0 1-.156-.125l.977-.008.758-.13.088-7.107-.06-.01-.003-.063v-.018l-.09-.12-.014-.02v-.025l-.003-.085-.002-.078.079-.001.1-.001.004-.183-6.199-.005a13.702 13.702 0 0 1-.017-.154l6.218.005.001-.045-.256-.378-.012-.018-.002-.021-.007-.136-.158-.297-.06-.114.129.001.373.003.008-.473-.035-.054-.076-.119h.141l1.362.01-.002-.152-.024-.034-.084-.121h2.155l-.091-.107h.167l.62.002v-.001Zm-4.742 10.94 6.33-.009v.154l-6.074.008c-.086-.05-.171-.101-.256-.153Zm4.357-1.261 1.264-.003v.07h.015v.09H16.83v-.09h.012v-.067Zm.104-.114 1.069.001v.09l-1.07-.002v-.089Zm-3.717-7.355-.003.182 1.149.004.01-.217.002-.042.036-.02.016-.01.006-.431-1.413-.01.188.278.014.02v.025l-.003.145v.076h-.002Zm-.01.615-.09 7.161v.02l.939.005.004-.075.002-.06.059-.012.03-.007.022-.18.004-.027.02-.02.06-.056.108-6.75H13.22v.001Zm1.865-.32 2.07-.02.002.153-2.07.021-.002-.153Zm2.687-.023 1.044-.006.001.154-1.045.006v-.154Zm-4.812-.97 1.488.01v-.315l-1.21-.002v.001h-.076l-.32-.003.105.197.007.014.001.018.005.08Z"/><path d="m17.814 17.671.018.064.001.005v.005l.005.138v.016l-.01.013-.039.049.022.062.009.027-.021.02-.018.017-.015.014-.02-.002-.174-.015-.242-.002-.178.048-.05.014-.006-.052-.006-.063-.001-.012.004-.01.014-.033-.046-.053-.011-.013v-.016l-.002-.133v-.017l.01-.012.06-.073.027-.06.01-.025.027-.002a3.38 3.38 0 0 1 .276-.007c.093.001.184.006.279.012l.023.001.012.02.039.066.002.005.002.006v-.002Zm-.07.082-.014-.052-.024-.04a5.673 5.673 0 0 0-.25-.01c-.08 0-.16 0-.241.006l-.02.041-.002.006-.003.005-.054.065.002.1.054.062.019.021-.011.026-.02.047.132-.036.006-.002h.006l.25.003h.004l.131.011-.013-.04-.008-.023.015-.02.044-.054-.003-.115Zm-3.249.279.07-.02.005-.003h.006l.323-.004h.005l.004.001.185.036.001-.199-.005-.061-.04-.053-.004-.005-.002-.005-.015-.035a3.053 3.053 0 0 0-.563.006l-.01.005.002.114.013.008.023.012v.026l.002.177Zm.089.066-.12.037-.057.017v-.06l-.003-.21-.013-.008-.023-.013v-.026l-.002-.166v-.027l.023-.013.041-.022.008-.005h.01a3.48 3.48 0 0 1 .615-.005l.026.002.011.025.024.055.044.06.008.01.001.013.007.074v.004l-.002.256v.054l-.053-.01-.234-.045-.31.004h-.001Z"/><path fill-rule="evenodd" clip-rule="evenodd" d="m7.575 20.138 5.52-.059.018.193-5.475.026-.063-.16Zm.208.507 5.3-.068.024.192-5.25.042a4.93 4.93 0 0 1-.074-.166Zm4.071-.743.9.002.003-1.174-.901-.002-.002 1.174Zm.112-.457h.295l.001-.618h-.295l-.001.618Zm0 .357h.293v-.25h-.293v.25Zm.383-.357h.296v-.618h-.295v.618Zm0 .357h.293v-.25h-.292v.25Z"/><path d="M18.815 15.604a.66.66 0 0 0-.717.658.66.66 0 0 0 .717.66v.137a.796.796 0 0 1-.854-.798.797.797 0 0 1 .8-.797.47.47 0 0 1 .054.002v.137Z"/><path fill-rule="evenodd" clip-rule="evenodd" d="m17.803 16.036-3.683-.001.008.112.102.164v.14l.297-.002v.039h.124v.089h.285v-.089h.212v.088h.285v-.088h.211v.091h.286v-.091h.156v.09h.285v-.09h.136v.088h.285v-.088h.137v.091h.285v-.091h.13v.088h.286v-.088h.107l.066-.452Zm-7.399 3.866.901.002.002-1.174-.901-.002-.002 1.174Zm.112-.457h.295l.001-.618h-.295l-.001.618Zm0 .357h.293v-.25h-.292l-.001.25Zm.383-.357h.296v-.618H10.9v.618Zm0 .357h.293v-.25H10.9v.25Zm-1.934.1.901.002.002-1.174-.9-.002-.003 1.174Zm.112-.457h.296v-.618h-.295v.618Zm0 .357h.293v-.25h-.292v.25Zm.384-.357h.295v-.618h-.294l-.001.618Zm0 .357h.292v-.25h-.292v.25Zm-1.971.1.902.002.002-1.174-.901-.002-.003 1.174Zm.113-.457h.295v-.618h-.294l-.001.618Zm0 .357h.292v-.25h-.292v.25Zm.383-.357h.295l.002-.618h-.296v.618h-.001Zm0 .357h.293v-.25h-.293v.25Zm3.868 2.49.9.002.003-1.174-.901-.002-.002 1.174Zm.112-.457h.295l.001-.618h-.295l-.001.617Zm0 .356h.293v-.25h-.293v.25Zm.383-.356h.296v-.618h-.295v.617Zm0 .356h.293v-.25h-.292v.25Zm-1.945.101.901.002.002-1.174-.901-.002-.002 1.174Zm.112-.457h.295l.001-.618h-.295l-.001.617Zm0 .356h.293v-.25h-.292l-.001.25Zm.383-.356h.296v-.618H10.9v.617Zm0 .356h.293v-.25H10.9v.25Zm-1.934.101.901.002.002-1.174-.9-.002-.003 1.174Zm.112-.457h.296v-.618h-.295v.617Zm0 .356h.293v-.25h-.292v.25Zm.384-.356h.295v-.618h-.294l-.001.617Zm0 .356h.292v-.25h-.292v.25Zm2.393 2.446.9.002.003-1.174-.901-.002-.002 1.174Zm.112-.457h.295l.001-.618h-.295l-.001.617Zm0 .356h.293v-.25h-.293v.25Zm.383-.356h.296v-.618h-.295v.617Zm0 .356h.293v-.25h-.292v.25Zm-1.731.101.688.001.002-1.174-.902-.001-.002.97c.07.07.142.137.214.204Zm-.102-.457h.296v-.619h-.295v.618Zm0 .356h.293v-.25h-.292v.25Zm.384-.357.295.001.001-.619h-.295l-.001.618Zm0 .357h.293v-.25H10.9v.25Zm11.245.673.01-.142.052-.034.076-.246.064-.06.075-6.784-2.019-.016-.032.037.024.059-.006.063.086 6.642.075.06.018.122.052.143.036.011v.14l1.488.005Zm-.213-5.523v.172h-.142v.099h-.11v-.099l-.802.002v.097h-.104v-.097h-.126v-.171l1.284-.003Zm-1.118-.094-.003-1.413.91-.002.003 1.415h-.91Zm1.122 2.61v.17l-.141.001v.099h-.11v-.099l-.803.002v.096h-.104v-.096h-.126v-.171l1.284-.003Zm-1.117-.095-.003-1.413.91-.002.003 1.415h-.91Zm.915 2.515-.91.002-.003-1.384.91-.002.002 1.384Zm-2.252.587h-1.434l-.004-.16-.056-.139-.02-.122-.065-.058-.082-3.329-.072-3.347.018-.017-.029-.086.017-.02.959-.009h.1l.959.008.017.021-.03.086.019.017-.072 3.347-.082 3.329-.064.058-.02.122-.056.138-.004.16Zm-.667-.142.448-.002.005-1.822-.453-.001h-.1l-.454.001.006 1.822.447.002h.101Zm0-2.693h.374v.097h.104v-.096h.126v-.171l-.604-.001h-.1l-.58-.002v.172h.142v.099h.11v-.099h.428Zm0-.267h.416l.002-1.413-.418-.001h-.492l-.003 1.414h.495Zm0-2.253h.374v.098h.104v-.097h.126v-.171l-.604-.001h-.1l-.58-.001v.171h.142v.1h.11v-.1l.327.001h.101Zm0-.267h.416l.002-1.413-.418-.001h-.492l-.003 1.414h.495Zm-3.217.1v.17h.141v.1h.11v-.099l.803.002v.097h.103v-.097h.126v-.171l-1.284-.003Zm1.117-.095.003-1.413-.91-.002-.003 1.415h.91Zm-1.122 2.61v.17l.142.001v.099h.11v-.099l.802.002v.096h.104v-.096h.126v-.171l-1.284-.003Zm1.117-.095.003-1.413-.91-.002-.003 1.415h.91Zm-.915 2.515.91.002.003-1.384-.91-.002-.003 1.384Zm-.41.587-.011-.142-.052-.034-.076-.246-.064-.06-.075-6.784 2.019-.016.033.037-.025.059.006.063-.086 6.642-.075.06-.018.122-.052.143-.036.011v.14l-1.489.005Z"/><path d="M20.303 15.12v-.086h-.077l-1.512.003v.153l1.435-.002v.01h.065v.077l.607-.002-.002.027-.003.08h2.076l-.003.228-.002.079h.079l1.316-.008.008.492-1.286.001h-.077v.194h-3.015v-.015l-.154.002.001.09v.078h3.167l.003.196v.078h.001l.006.398-4.222.002v.154l4.279-.002.012.249.003.074h.074l1.3-.006.085.001-.077.104-.014.02v.002l-1.3-.002v.148l-.077.001.107 6.745h-.855v.089h.868l.012.012.017.015h-.985v.067h-.023v.09l1.07.002.011.092.007.055.054.011.025.006.004.089.003.074h.074l1.64-.008 1.102.027a7.32 7.32 0 0 0 .171-.137l-1.074-.013-.674-.114-.088-7.107.06-.01.003-.063v-.018l.09-.12.014-.02v-.025l.003-.085.002-.078-.079-.001-.1-.001-.004-.183 6.198-.005c.007-.051.012-.102.018-.154l-6.219.005v-.045l.256-.378.012-.018.001-.021.008-.136.158-.297.06-.114-.129.001-.373.003-.008-.473.035-.054.076-.119h-.142l-1.361.01.002-.152.024-.034.084-.121H21l.091-.107h-.167l-.62.002v-.001Zm4.741 10.939-6.33-.009v.154l6.074.008a12.3 12.3 0 0 0 .256-.153Zm-4.356-1.261-1.264-.003v.07h-.015v.09H20.7v-.09h-.012v-.067Zm-.104-.114-1.07.001v.09l1.07-.002v-.089ZM24.3 17.33l.004.182-1.149.004-.01-.217-.002-.042-.036-.02-.016-.01-.007-.431 1.414-.01-.188.278-.014.02v.025l.003.145v.076h.001Zm.011.615.09 7.161v.02l-.939.005-.003-.075-.003-.06-.058-.012-.03-.007-.023-.18-.004-.027-.02-.02-.06-.056-.108-6.75h1.158v.001Zm-1.865-.32-2.071-.02-.001.153 2.07.021.002-.153Zm-2.687-.023-1.044-.006v.154l1.044.006v-.154Zm4.812-.97-1.488.01v-.315l1.21-.002v.001h.076l.32-.003-.105.197-.008.014v.018l-.005.08Z"/><path d="m19.715 17.671-.017.064-.002.005v.005l-.004.138v.016l.01.013.038.049-.02.062-.01.027.021.02.018.017.015.014.02-.002.175-.015.241-.002.178.048.05.014.006-.052.006-.063.001-.012-.004-.01-.014-.033.046-.053.011-.013v-.016l.003-.133v-.017l-.01-.012-.06-.073-.027-.06-.011-.025-.027-.002a3.38 3.38 0 0 0-.276-.007 5.466 5.466 0 0 0-.278.012l-.024.001-.012.02-.038.066-.003.005-.002.006v-.002Zm.07.082.014-.052.024-.04c.086-.005.17-.009.25-.01.08 0 .16 0 .242.006l.018.041.003.006.004.005.053.065-.001.1-.055.062-.018.021.01.026.021.047-.132-.036-.006-.002h-.006l-.251.003h-.004l-.131.011.013-.04.008-.023-.015-.02-.044-.054.004-.115h-.001Zm3.25.279-.07-.02-.006-.003h-.006l-.322-.004h-.005l-.004.001-.185.036-.002-.199.006-.061.04-.053.003-.005.002-.005.016-.035a3.057 3.057 0 0 1 .563.006l.01.005-.002.114-.014.008-.022.012v.026l-.002.177Zm-.09.066.12.037.057.017v-.06l.003-.21.014-.008.022-.013v-.026l.002-.166v-.027l-.023-.013-.04-.022-.008-.005h-.01a3.47 3.47 0 0 0-.616-.005l-.026.002-.01.025-.025.055-.044.06-.008.01-.001.013-.007.074v.004l.002.256v.054l.053-.01.234-.045.31.004h.001Zm1.505-.316 6.125.001v.15h-6.124v-.151Zm6.053.539-6.112-.079.002-.15 6.112.079-.002.15Zm-23.478-.15 6.112-.079.002.15-6.112.079-.002-.15Zm6.054-.239-6.124.001v-.15l6.124-.001v.15Z"/><path fill-rule="evenodd" clip-rule="evenodd" d="m29.954 20.138-5.52-.059-.018.193 5.476.026.062-.16Zm-.207.507-5.3-.068-.024.192 5.25.042.074-.166Zm-4.072-.743-.9.002-.003-1.174.902-.002.002 1.174Zm-.112-.457h-.295v-.618h.294l.001.618Zm0 .357h-.293v-.25h.293v.25Zm-.383-.357h-.295l-.001-.618h.295l.001.618Zm0 .357h-.293v-.25h.293v.25Z"/><path d="M18.714 15.604a.659.659 0 0 1 .717.658.66.66 0 0 1-.717.66v.137a.796.796 0 0 0 .854-.798.796.796 0 0 0-.8-.797c-.018 0-.036 0-.054.002v.137Z"/><path fill-rule="evenodd" clip-rule="evenodd" d="m19.726 16.036 3.683-.001-.007.112-.102.164v.14l-.298-.002v.039h-.123v.089h-.285v-.089h-.212v.088h-.285v-.088h-.212v.091H21.6v-.091h-.157v.09h-.285v-.09h-.135v.088h-.285v-.088H20.6v.091h-.285v-.091h-.131v.088H19.9v-.088h-.108l-.066-.452Zm7.399 3.866-.901.002-.002-1.174.901-.002.002 1.174Zm-.112-.457h-.295l-.001-.618h.295l.001.618Zm0 .357h-.293v-.25h.293v.25Zm-.383-.357h-.296v-.618h.294l.001.618Zm0 .357h-.293v-.25h.292v.25Zm1.934.1-.9.002-.003-1.174.901-.002.002 1.174Zm-.112-.457h-.295l-.002-.618h.296l.001.618Zm0 .357h-.293v-.25h.293v.25Zm-.383-.357h-.296v-.618h.295v.618Zm0 .357h-.293v-.25h.292v.25Zm1.971.1-.902.002-.002-1.174.901-.002.002 1.174Zm-.113-.457h-.295l-.001-.618h.295v.618Zm0 .357h-.293v-.25h.292v.25Zm-.383-.357h-.296v-.618h.295v.618Zm0 .357h-.293v-.25h.292v.25Zm-3.869 2.49-.9.002-.003-1.174.902-.002.002 1.174Zm-.112-.457h-.295v-.618h.294l.001.617Zm0 .356h-.293v-.25h.293v.25Zm-.383-.356h-.295l-.001-.618h.295l.001.617Zm0 .356h-.293v-.25h.293v.25Zm1.945.101-.901.002-.002-1.174.901-.002.002 1.174Zm-.112-.457h-.295l-.001-.618h.295l.001.617Zm0 .356h-.293v-.25h.293v.25Zm-.383-.356h-.296v-.618h.294l.001.617Zm0 .356h-.293v-.25h.292v.25Zm1.934.101-.9.002-.003-1.174.901-.002.002 1.174Zm-.112-.457h-.295l-.002-.618h.296l.001.617Zm0 .356h-.293v-.25h.293v.25Zm-.383-.356h-.296v-.618h.295v.617Zm0 .356h-.293v-.25h.292v.25Zm-2.394 2.446-.9.002-.003-1.174.902-.002.002 1.174Zm-.112-.457h-.295v-.618h.294l.001.617Zm0 .356h-.293v-.25h.293v.25Zm-.383-.356h-.295l-.001-.618h.295l.001.617Zm0 .356h-.293v-.25h.293v.25Zm1.731.101-.687.001-.002-1.174.901-.001.002.97c-.07.07-.142.137-.214.204Zm.102-.457h-.295l-.001-.619h.295l.001.618Zm0 .356h-.293v-.25h.293v.25Zm-.383-.357-.296.001v-.619h.294l.001.618Zm0 .357h-.293v-.25h.292v.25Z"/><path d="M15.987 6.011h2.11c.415 0 .732.098.952.295a.95.95 0 0 1 .33.74.917.917 0 0 1-.231.631c-.154.172-.386.31-.695.41.383.086.67.223.862.409a.941.941 0 0 1 .287.705c0 .217-.054.41-.162.577-.109.169-.29.31-.543.426a2.04 2.04 0 0 1-.86.175h-2.05v-.224h.333c.1 0 .174-.018.221-.053.046-.036.07-.076.07-.121V6.486c0-.082-.023-.145-.07-.187-.045-.043-.111-.064-.198-.064h-.356v-.224Zm1.208 2.003h.766a.737.737 0 0 0 .562-.223c.14-.148.21-.391.21-.73 0-.209-.034-.372-.1-.489a.583.583 0 0 0-.29-.256c-.127-.053-.347-.08-.658-.08-.221 0-.359.017-.411.05-.054.035-.08.095-.08.181v1.547Zm0 .223V9.92c0 .078.021.137.064.176.043.04.12.06.231.06h.491c.325 0 .565-.078.72-.232.156-.154.234-.394.234-.72 0-.3-.08-.535-.241-.707-.161-.173-.383-.258-.667-.258h-.832Z"/><path d="M18.636 10.3v2.135c0 .258.02.453.063.584.062.195.175.35.34.466.166.116.38.174.647.174.37 0 .65-.103.843-.308.194-.205.29-.48.29-.824v-2.003c0-.177-.011-.31-.034-.402a.53.53 0 0 0-.099-.214.371.371 0 0 0-.161-.113 1.013 1.013 0 0 0-.329-.038v-.223h1.527v.223h-.11c-.17 0-.298.05-.382.15-.083.098-.125.242-.125.431v2.144c0 .467-.125.826-.373 1.076-.28.281-.65.422-1.115.422-.401 0-.717-.062-.947-.185-.23-.123-.397-.3-.501-.53a1.618 1.618 0 0 1-.118-.66v-2.227a2.18 2.18 0 0 0 .584-.078Z"/><path fill-rule="evenodd" clip-rule="evenodd" d="M16.017 31.88c1.458-.214 2.36-.85 2.808-1.832.448.982 1.351 1.618 2.809 1.832-1.458.215-2.36.85-2.809 1.832-.448-.981-1.35-1.617-2.808-1.832Zm-6.39.59c1.955.933 3.44.664 4.346-1.09-1.75-.439-3.202-.085-4.346 1.09ZM6.97 30.62c1.649 1.245 3.053 1.227 4.154-.352-1.537-.724-2.923-.616-4.154.353Zm-2.404-2.524c1.34 1.572 2.714 1.86 4.132.559-1.343-1.041-2.72-1.238-4.132-.56Zm-2.005-2.744c1.056 1.775 2.363 2.29 3.98 1.244-1.15-1.251-2.474-1.675-3.98-1.244ZM.987 22.165c1.056 1.775 2.242 3.069 3.858 2.024-.665-1.123-2.352-2.456-3.858-2.024ZM.275 18.88c.52 1.54 1.165 3.325 3.358 2.568-.664-1.122-1.852-3-3.358-2.569ZM0 15.503c.23 1.6.668 3.239 2.833 3.106C2.567 17.403 1.56 15.285 0 15.503Zm.387-3.383c-.06 1.615.079 3.306 2.234 3.562-.047-1.234-.66-3.498-2.234-3.562Zm.936-3.26c-.313 1.585-.443 3.277 1.645 3.869.147-1.226-.101-3.558-1.645-3.87Zm1.67-3.111c-.632 1.487-1.106 3.116.815 4.124.397-1.17.632-3.503-.815-4.124Zm2.229-2.631C4.28 4.43 3.462 5.917 5.116 7.32c.642-1.054 1.382-3.28.106-4.202Zm4.665-.233C9.23 2.66 6.484 3.57 6.71 5.728c1.216-.076 2.546-1 3.177-2.843Zm-.593 4.004c-1.179.923-2.175 1.507-3.783.572.566-1.059 2.335-1.753 3.783-.572ZM7.843 8.72c-.957 1.152-1.807 1.932-3.576 1.358.33-1.154 1.911-2.207 3.576-1.358Zm-1.19 2.15c-.76 1.291-1.473 2.198-3.311 1.917.139-1.192 1.53-2.486 3.31-1.917Zm-.713 2.325c-.517 1.43-1.058 2.467-2.916 2.495-.076-1.226 1.064-2.768 2.917-2.495Zm-.255 2.467c-.287 1.494-.66 2.602-2.492 2.92-.266-1.2.619-2.9 2.492-2.92Zm.134 2.337c-.022 1.521-.196 2.677-1.945 3.31-.47-1.134.104-2.963 1.945-3.31Zm.476 2.247c.352 1.48.467 2.643-1.073 3.685-.735-.984-.626-2.897 1.073-3.685Zm.924 2.224c.611 1.393.933 2.516-.395 3.818-.9-.836-1.136-2.739.395-3.819Zm1.451 1.98c.844 1.266 1.356 2.316.275 3.829-1.03-.667-1.595-2.5-.275-3.829Zm1.71 1.707c1.057 1.094 1.75 2.035.956 3.718-1.134-.472-2.017-2.173-.957-3.718Zm2.077 1.211c1.238 1.094 2.084 2.036 1.567 3.718-1.256-.267-2.408-2.015-1.566-3.718Zm15.43 5.102c-1.955.933-3.44.664-4.346-1.09 1.75-.439 3.202-.085 4.346 1.09Zm2.657-1.85c-1.649 1.245-3.053 1.227-4.154-.352 1.537-.724 2.923-.616 4.154.353Zm2.404-2.524c-1.34 1.572-2.713 1.86-4.132.559 1.343-1.041 2.72-1.238 4.132-.56Zm2.005-2.744c-1.056 1.775-2.363 2.29-3.98 1.244 1.15-1.251 2.474-1.675 3.98-1.244Zm1.575-3.187c-1.057 1.775-2.242 3.069-3.858 2.024.664-1.123 2.352-2.456 3.858-2.024Zm.712-3.285c-.52 1.54-1.166 3.325-3.36 2.568.665-1.122 1.853-3 3.36-2.569Zm.274-3.377c-.23 1.6-.667 3.239-2.833 3.106.267-1.206 1.274-3.324 2.833-3.106Zm-.387-3.383c.06 1.615-.079 3.306-2.233 3.562.047-1.234.66-3.498 2.233-3.562Zm-.936-3.26c.313 1.585.443 3.277-1.645 3.869-.147-1.226.102-3.558 1.645-3.87Zm-1.67-3.111c.632 1.487 1.106 3.116-.815 4.124-.397-1.17-.632-3.503.815-4.124Zm-2.229-2.631c.942 1.313 1.761 2.799.106 4.202-.642-1.054-1.382-3.28-.106-4.202Zm-4.665-.233c.657-.224 3.404.685 3.177 2.843-1.216-.076-2.546-1-3.177-2.843Zm.593 4.004c1.179.923 2.175 1.507 3.783.572-.566-1.059-2.335-1.753-3.783-.572Zm1.45 1.831c.958 1.152 1.808 1.932 3.578 1.358-.33-1.154-1.912-2.207-3.577-1.358Zm1.192 2.15c.759 1.291 1.472 2.198 3.31 1.917-.139-1.192-1.53-2.486-3.31-1.917Zm.711 2.325c.518 1.43 1.059 2.467 2.918 2.495.075-1.226-1.065-2.768-2.918-2.495Zm.257 2.467c.287 1.494.66 2.602 2.491 2.92.266-1.2-.619-2.9-2.492-2.92Zm-.134 2.337c.022 1.521.195 2.677 1.944 3.31.47-1.134-.104-2.963-1.944-3.31Zm-.477 2.247c-.352 1.48-.467 2.643 1.073 3.685.734-.984.626-2.897-1.073-3.685Zm-.923 2.224c-.612 1.393-.934 2.516.394 3.818.9-.836 1.136-2.739-.395-3.819Zm-1.452 1.98c-.844 1.266-1.356 2.316-.275 3.829 1.031-.667 1.595-2.5.275-3.829Zm-1.709 1.707c-1.057 1.094-1.75 2.035-.957 3.718 1.134-.472 2.017-2.173.957-3.718Zm-2.078 1.211c-1.237 1.094-2.084 2.036-1.567 3.718 1.257-.267 2.408-2.015 1.567-3.718ZM12.641 1.418l.023-.147.093-.043.24.514-.093.042c-.108-.136-.211-.22-.31-.254a.37.37 0 0 0-.282.01.277.277 0 0 0-.15.147.23.23 0 0 0 .002.19c.018.04.042.07.073.092.03.021.068.033.112.036.044.002.122-.009.235-.033.165-.035.285-.05.362-.044a.392.392 0 0 1 .198.067.385.385 0 0 1 .129.161.453.453 0 0 1 .013.366.489.489 0 0 1-.268.27.547.547 0 0 1-.414.027l-.038.166-.093.042-.247-.546.1-.046a.648.648 0 0 0 .318.265c.12.04.23.038.334-.01a.312.312 0 0 0 .17-.164.259.259 0 0 0-.003-.214.201.201 0 0 0-.074-.088.24.24 0 0 0-.126-.032 1.66 1.66 0 0 0-.297.042c-.165.032-.285.038-.36.018a.365.365 0 0 1-.242-.22.44.44 0 0 1-.018-.35.446.446 0 0 1 .246-.25.489.489 0 0 1 .368-.014Zm.502-.32.67-.235.037.106-.127.045c-.043.015-.067.029-.074.04-.005.011-.002.034.01.067l.362 1.036c.013.037.025.057.034.061.015.007.04.005.073-.007l.14-.05.038.107-.67.235-.038-.106.139-.049c.036-.013.057-.025.063-.037.006-.012.003-.036-.01-.073l-.364-1.035c-.012-.033-.021-.052-.03-.055-.018-.006-.048-.002-.089.012l-.127.045-.037-.106Zm.982-.372L14.49.64l1.08.917-.18-.783c-.018-.075-.047-.127-.088-.154-.038-.025-.093-.03-.167-.014l-.026-.11.531-.122.025.11a.28.28 0 0 0-.118.046.157.157 0 0 0-.042.082.247.247 0 0 0 .001.118l.264 1.142-.118.027-1.12-.96.192.834c.016.072.046.122.09.148.043.026.109.03.198.01l.026.11-.58.133-.024-.108c.073-.02.124-.053.15-.1a.202.202 0 0 0 .023-.153l-.219-.947-.017-.012A.292.292 0 0 0 14.3.811a.154.154 0 0 0-.067.003l-.084.02-.025-.11Zm2.92-.453.044-.145.094-.01.1.614-.1.012A1.346 1.346 0 0 0 17.005.4c-.106-.085-.211-.122-.316-.11a.331.331 0 0 0-.26.189c-.061.111-.076.294-.046.547.025.214.074.368.147.465a.448.448 0 0 0 .348.107c.112-.013.2-.06.268-.14.067-.081.104-.202.11-.363l.107-.013c.002.192-.042.342-.132.45a.539.539 0 0 1-.365.189.652.652 0 0 1-.632-.292.811.811 0 0 1-.138-.371.925.925 0 0 1 .046-.424.718.718 0 0 1 .21-.32.585.585 0 0 1 .505-.126.578.578 0 0 1 .189.085h-.001Zm.586-.174 1.192-.04.046.527-.104.004c-.033-.16-.077-.269-.132-.325a.269.269 0 0 0-.21-.08l-.284.01c-.017 0-.03.005-.037.014-.008.008-.012.023-.01.043l.016.497.104-.003a.188.188 0 0 0 .145-.07c.037-.046.055-.122.055-.228l.108-.004.024.71-.108.004c-.008-.119-.031-.2-.072-.243a.198.198 0 0 0-.159-.06l-.093.003.019.555c0 .016.005.027.015.034.01.008.029.011.056.01l.225-.008c.231-.007.36-.168.387-.48l.109-.003-.007.58-1.234.041-.004-.112.12-.004c.033-.001.055-.007.067-.017.011-.01.016-.025.016-.046L17.84.26c0-.019-.005-.033-.016-.041-.01-.009-.026-.012-.05-.012l-.14.005L17.63.1Zm3.183-.088L20.64 1.49c-.002.015.004.03.018.042.011.01.03.017.058.02l.252.03-.016.134-.891-.105.016-.135.218.026c.033.004.058 0 .075-.013a.084.084 0 0 0 .029-.059l.13-1.1a.051.051 0 0 0-.014-.042.078.078 0 0 0-.05-.022L20.18.232l.015-.124c.136-.001.242-.01.32-.027A.767.767 0 0 0 20.726 0l.087.01Zm1.527 1.132a.3.3 0 0 1-.18.133.507.507 0 0 1-.547-.198c-.079-.108-.099-.243-.06-.406a.572.572 0 0 1 .255-.365.536.536 0 0 1 .427-.076c.166.039.288.14.365.301.078.162.088.363.032.605-.047.2-.116.362-.21.487a.722.722 0 0 1-.313.256.601.601 0 0 1-.362.023.473.473 0 0 1-.272-.15.255.255 0 0 1-.06-.228.186.186 0 0 1 .078-.117.162.162 0 0 1 .132-.022.16.16 0 0 1 .102.07c.024.036.03.075.021.115a.167.167 0 0 1-.063.088c-.015.012-.023.022-.025.03-.003.014.004.03.02.046.017.017.051.03.102.043a.331.331 0 0 0 .21-.016.45.45 0 0 0 .187-.174 1.14 1.14 0 0 0 .143-.367l.018-.079ZM22.21.359a.24.24 0 0 0-.216.054c-.066.055-.115.15-.148.29-.03.126-.026.225.011.297a.254.254 0 0 0 .176.135c.08.02.155.003.226-.05.071-.05.12-.137.149-.258a.464.464 0 0 0-.019-.313.265.265 0 0 0-.179-.155Zm1.456 1.111a.449.449 0 0 1 .205.197.43.43 0 0 1 .026.34.428.428 0 0 1-.25.28.65.65 0 0 1-.465.006.673.673 0 0 1-.252-.137.41.41 0 0 1-.126-.196.383.383 0 0 1 .007-.22.234.234 0 0 1 .095-.134.16.16 0 0 1 .14-.017c.044.014.076.04.094.08.018.038.019.08.003.129a.155.155 0 0 1-.047.075.196.196 0 0 1-.091.039c-.028.005-.043.01-.046.017-.005.018-.002.043.01.073s.036.06.072.09a.489.489 0 0 0 .152.073c.11.035.2.034.269-.003.069-.036.123-.116.162-.238.04-.128.048-.225.02-.29-.027-.066-.085-.113-.172-.14a.645.645 0 0 0-.095-.02.533.533 0 0 1-.071-.016.117.117 0 0 1-.062-.041.067.067 0 0 1-.008-.062.064.064 0 0 1 .041-.045.104.104 0 0 1 .07.002l.07.025.045.017c.092.029.166.029.224-.001.057-.03.101-.093.131-.189.038-.118.044-.207.017-.268-.026-.06-.08-.105-.163-.13a.373.373 0 0 0-.195-.02c-.052.013-.08.027-.086.043-.004.012.002.029.015.052.035.063.045.117.03.163a.13.13 0 0 1-.07.081.152.152 0 0 1-.115.005.141.141 0 0 1-.092-.084.21.21 0 0 1 .001-.148.335.335 0 0 1 .163-.195c.114-.064.25-.07.407-.02a.531.531 0 0 1 .314.231c.063.108.076.22.038.336a.364.364 0 0 1-.143.198.444.444 0 0 1-.273.063Zm1.494.657a.301.301 0 0 1-.201.097.507.507 0 0 1-.5-.298c-.057-.12-.051-.257.017-.41a.57.57 0 0 1 .32-.31.534.534 0 0 1 .433.006c.156.07.257.191.302.364.046.174.018.373-.083.6a1.31 1.31 0 0 1-.297.44.723.723 0 0 1-.356.191.6.6 0 0 1-.361-.045.472.472 0 0 1-.238-.2.256.256 0 0 1-.016-.234.187.187 0 0 1 .098-.101.163.163 0 0 1 .134.003.16.16 0 0 1 .087.088c.016.04.016.08-.001.117a.166.166 0 0 1-.079.075c-.017.009-.026.017-.03.025-.006.013-.002.03.011.049.013.019.044.04.092.06.07.032.14.04.21.025a.452.452 0 0 0 .216-.136c.075-.075.144-.187.21-.333l.032-.074Zm.02-.795a.239.239 0 0 0-.222.013c-.075.04-.142.126-.2.256-.053.119-.068.217-.046.294a.253.253 0 0 0 .148.166.266.266 0 0 0 .231-.006c.08-.037.144-.112.194-.226a.464.464 0 0 0 .041-.31.263.263 0 0 0-.147-.187Z"/></g><defs><clipPath id="a"><path fill="#fff" d="M0 0h37.514v33.712H0z"/></clipPath></defs></svg>